<?xml version="1.0" encoding="UTF-8" standalone="no"?>
<!-- Created with Inkscape (http://www.inkscape.org/) -->

<svg
   xmlns:dc="http://purl.org/dc/elements/1.1/"
   xmlns:cc="http://creativecommons.org/ns#"
   xmlns:rdf="http://www.w3.org/1999/02/22-rdf-syntax-ns#"
   xmlns:svg="http://www.w3.org/2000/svg"
   xmlns="http://www.w3.org/2000/svg"
   xmlns:xlink="http://www.w3.org/1999/xlink"
   xmlns:sodipodi="http://sodipodi.sourceforge.net/DTD/sodipodi-0.dtd"
   xmlns:inkscape="http://www.inkscape.org/namespaces/inkscape"
   id="svg2985"
   version="1.1"
   inkscape:version="0.48.2 r9819"
   width="125"
   height="50"
   xml:space="preserve"
   sodipodi:docname="orchestrator.svg"
   inkscape:export-filename="C:\Users\carcassi\Documents\Development\CSSGraphicsHG\icons\orchestrator.png"
   inkscape:export-xdpi="90"
   inkscape:export-ydpi="90"><metadata
     id="metadata2991"><rdf:RDF><cc:Work
         rdf:about=""><dc:format>image/svg+xml</dc:format><dc:type
           rdf:resource="http://purl.org/dc/dcmitype/StillImage" /><dc:title></dc:title></cc:Work></rdf:RDF></metadata><defs
     id="defs2989"><linearGradient
       id="linearGradient3823"><stop
         style="stop-color:#737373;stop-opacity:1;"
         offset="0"
         id="stop3825" /><stop
         id="stop3831"
         offset="0.5"
         style="stop-color:#4c4c54;stop-opacity:1;" /><stop
         style="stop-color:#54545d;stop-opacity:1;"
         offset="1"
         id="stop3827" /></linearGradient><linearGradient
       id="linearGradient3813"><stop
         style="stop-color:#e5e5e5;stop-opacity:1;"
         offset="0"
         id="stop3815" /><stop
         style="stop-color:#c5c5c5;stop-opacity:1;"
         offset="1"
         id="stop3817" /></linearGradient><linearGradient
       id="linearGradient5204"><stop
         style="stop-color:#555555;stop-opacity:0.40392157;"
         offset="0"
         id="stop5206" /><stop
         style="stop-color:#0f0f0f;stop-opacity:0.52549022;"
         offset="1"
         id="stop5208" /></linearGradient><linearGradient
       id="linearGradient3856"><stop
         style="stop-color:#000000;stop-opacity:1;"
         offset="0"
         id="stop3858" /><stop
         style="stop-color:#000000;stop-opacity:0;"
         offset="1"
         id="stop3860" /></linearGradient><inkscape:perspective
       sodipodi:type="inkscape:persp3d"
       inkscape:vp_x="0 : 25 : 1"
       inkscape:vp_y="0 : 1000 : 0"
       inkscape:vp_z="125 : 25 : 1"
       inkscape:persp3d-origin="62.5 : 16.666667 : 1"
       id="perspective3834" /><clipPath
       clipPathUnits="userSpaceOnUse"
       id="clipPath3001"><path
         d="M 0,50 125,50 125,0 0,0 0,50 z"
         id="path3003"
         inkscape:connector-curvature="0" /></clipPath><clipPath
       clipPathUnits="userSpaceOnUse"
       id="clipPath3013"><path
         d="M 0,50 125,50 125,0 0,0 0,50 z"
         id="path3015"
         inkscape:connector-curvature="0" /></clipPath><clipPath
       clipPathUnits="userSpaceOnUse"
       id="clipPath3025"><path
         d="M 0,50 125,50 125,0 0,0 0,50 z"
         id="path3027"
         inkscape:connector-curvature="0" /></clipPath><clipPath
       clipPathUnits="userSpaceOnUse"
       id="clipPath3037"><path
         d="M 0,50 125,50 125,0 0,0 0,50 z"
         id="path3039"
         inkscape:connector-curvature="0" /></clipPath><linearGradient
       inkscape:collect="always"
       xlink:href="#linearGradient3856"
       id="linearGradient3862"
       x1="4"
       y1="8"
       x2="4"
       y2="5"
       gradientUnits="userSpaceOnUse"
       gradientTransform="matrix(0.8,0,0,-0.8,-3.2,33.6)" /><clipPath
       clipPathUnits="userSpaceOnUse"
       id="clipPath3321"><path
         d="m 382.974,323 -0.974,-0.862 0,-20.123 0.974,-1.015 28.051,0 0.975,1.015 0,20.123 -0.975,0.862 -28.051,0 z m 0.026,-1 28,0 0,-20 -28,0 0,20 z"
         id="path3323"
         inkscape:connector-curvature="0" /></clipPath><mask
       maskUnits="userSpaceOnUse"
       x="0"
       y="0"
       width="1"
       height="1"
       id="mask3339"><g
         id="g3341"><g
           id="g3343"><g
             id="g3345"><g
               id="g3347"><path
                 d="m -32768,32767 65535,0 0,-65534 -65535,0 0,65534 z"
                 style="fill:url(#linearGradient3333);stroke:none"
                 id="path3349"
                 inkscape:connector-curvature="0" /></g></g></g></g></mask><linearGradient
       x1="0"
       y1="0"
       x2="1"
       y2="0"
       gradientUnits="userSpaceOnUse"
       gradientTransform="matrix(0,-22,-22,0,396.99951,323)"
       spreadMethod="pad"
       id="linearGradient3333"><stop
         style="stop-opacity:0.50000763;stop-color:#ffffff"
         offset="0"
         id="stop3335" /><stop
         style="stop-opacity:0.50000763;stop-color:#ffffff"
         offset="1"
         id="stop3337" /></linearGradient><linearGradient
       x1="0"
       y1="0"
       x2="1"
       y2="0"
       gradientUnits="userSpaceOnUse"
       gradientTransform="matrix(0,-22,-22,0,396.99951,323)"
       spreadMethod="pad"
       id="linearGradient3355"><stop
         style="stop-opacity:1;stop-color:#555555"
         offset="0"
         id="stop3357" /><stop
         style="stop-opacity:1;stop-color:#0f0f0f"
         offset="1"
         id="stop3359" /></linearGradient><linearGradient
       inkscape:collect="always"
       xlink:href="#linearGradient5204"
       id="linearGradient5218"
       x1="9"
       y1="1"
       x2="9"
       y2="17"
       gradientUnits="userSpaceOnUse" /><linearGradient
       inkscape:collect="always"
       xlink:href="#linearGradient3813"
       id="linearGradient3819"
       x1="9"
       y1="2"
       x2="9"
       y2="16"
       gradientUnits="userSpaceOnUse" /><linearGradient
       inkscape:collect="always"
       xlink:href="#linearGradient3823"
       id="linearGradient3829"
       x1="3"
       y1="6"
       x2="15"
       y2="12"
       gradientUnits="userSpaceOnUse" /></defs><sodipodi:namedview
     pagecolor="#ffffff"
     bordercolor="#666666"
     borderopacity="1"
     objecttolerance="10"
     gridtolerance="10"
     guidetolerance="10"
     inkscape:pageopacity="0"
     inkscape:pageshadow="2"
     inkscape:window-width="1680"
     inkscape:window-height="975"
     id="namedview2987"
     showgrid="true"
     fit-margin-top="0"
     fit-margin-left="0"
     fit-margin-right="0"
     fit-margin-bottom="0"
     inkscape:zoom="10.346902"
     inkscape:cx="-20.865943"
     inkscape:cy="40.78998"
     inkscape:window-x="-9"
     inkscape:window-y="-9"
     inkscape:window-maximized="1"
     inkscape:current-layer="g2993"><inkscape:grid
       type="xygrid"
       id="grid3043"
       empspacing="5"
       visible="true"
       enabled="true"
       snapvisiblegridlinesonly="true" /></sodipodi:namedview><g
     id="g2993"
     inkscape:groupmode="layer"
     inkscape:label="icon-template"
     transform="matrix(1.25,0,0,-1.25,0,60)"><path
       d="m 13.6,34.4 -12.8000002,0 0,12.8 12.8000002,0 0,-12.8 z"
       style="fill:#ffffff;fill-opacity:1;fill-rule:nonzero;stroke:none"
       id="path2995"
       inkscape:connector-curvature="0" /><g
       id="g2997"
       transform="matrix(0.8,0,0,0.8,0,8)"
       style="fill:none;stroke:#000000;stroke-opacity:1"><g
         id="g2999"
         clip-path="url(#clipPath3001)"
         style="fill:none;stroke:#000000;stroke-opacity:1"><path
           d="m 17.5,32.5 -17,0 0,17 17,0 0,-17 z"
           style="fill:none;stroke:#000000;stroke-width:1;stroke-linecap:butt;stroke-linejoin:miter;stroke-miterlimit:10;stroke-opacity:1;stroke-dasharray:none"
           id="path3005"
           inkscape:connector-curvature="0" /></g></g><path
       d="m 34,27.6 -20,0 0,20 20,0 0,-20 z"
       style="fill:#ffffff;fill-opacity:1;fill-rule:nonzero;stroke:none"
       id="path3007"
       inkscape:connector-curvature="0" /><g
       id="g3009"
       transform="matrix(0.8,0,0,0.8,0,8)"
       style="stroke:#000000;stroke-opacity:1;fill:none"><g
         id="g3011"
         clip-path="url(#clipPath3013)"
         style="stroke:#000000;stroke-opacity:1;fill:none"><path
           d="m 42.5,24.5 -25,0 0,25 25,0 0,-25 z"
           style="fill:none;stroke:#000000;stroke-width:1;stroke-linecap:butt;stroke-linejoin:miter;stroke-miterlimit:10;stroke-opacity:1;stroke-dasharray:none"
           id="path3017"
           inkscape:connector-curvature="0" /></g></g><path
       d="m 99.6,8.4 -39.2,0 0,39.2 39.2,0 0,-39.2 z"
       style="fill:#ffffff;fill-opacity:1;fill-rule:nonzero;stroke:none"
       id="path3019"
       inkscape:connector-curvature="0" /><g
       id="g3021"
       transform="matrix(0.8,0,0,0.8,0,8)"
       style="stroke:#000000;stroke-opacity:1;fill:none"><g
         id="g3023"
         clip-path="url(#clipPath3025)"
         style="stroke:#000000;stroke-opacity:1;fill:none"><path
           d="m 124.5,0.5 -49,0 0,49 49,0 0,-49 z"
           style="fill:none;stroke:#000000;stroke-width:1;stroke-linecap:butt;stroke-linejoin:miter;stroke-miterlimit:10;stroke-opacity:1;stroke-dasharray:none"
           id="path3029"
           inkscape:connector-curvature="0" /></g></g><path
       d="m 60.4,21.2 -26.4,0 0,26.4 26.4,0 0,-26.4 z"
       style="fill:#ffffff;fill-opacity:1;fill-rule:nonzero;stroke:none"
       id="path3031"
       inkscape:connector-curvature="0" /><g
       id="g3033"
       transform="matrix(0.8,0,0,0.8,0,8)"
       style="fill:none;stroke:#000000;stroke-opacity:1"><g
         id="g3035"
         clip-path="url(#clipPath3037)"
         style="fill:none;stroke:#000000;stroke-opacity:1"><path
           d="m 75.5,16.5 -33,0 0,33 33,0 0,-33 z"
           style="fill:none;stroke:#000000;stroke-width:1;stroke-linecap:butt;stroke-linejoin:miter;stroke-miterlimit:10;stroke-opacity:1;stroke-dasharray:none"
           id="path3041"
           inkscape:connector-curvature="0" /></g></g><rect
       style="fill:none;stroke:none"
       id="rect3045"
       width="12.8"
       height="12.8"
       x="-2.4000001"
       y="-32.800011"
       transform="scale(1,-1)" /><path
       d="m 33.6,28 -19.2,0 0,19.2 19.2,0 0,-19.2 z"
       style="fill:#ffffff;fill-opacity:1;fill-rule:nonzero;stroke:none"
       id="path2995-4"
       inkscape:connector-curvature="0" /><path
       d="m 60,21.6 -25.6,0 0,25.6 25.6,0 0,-25.6 z"
       style="fill:#ffffff;fill-opacity:1;fill-rule:nonzero;stroke:none"
       id="path2995-4-0"
       inkscape:connector-curvature="0" /><path
       d="m 99.2,8.8 -38.4,0 0,38.4 38.4,0 0,-38.4 z"
       style="fill:#ffffff;fill-opacity:1;fill-rule:nonzero;stroke:none"
       id="path2995-4-0-9"
       inkscape:connector-curvature="0" /><g
       id="g3327"
       transform="matrix(0.8,0,0,0.8,-316.82,-205.6)" /><path
       style="fill:url(#linearGradient5218);stroke:none;stroke-width:1px;stroke-linecap:butt;stroke-linejoin:miter;stroke-opacity:1;fill-opacity:1"
       d="M 1,2 2,1 16,1 17,2 17,16 16,17 2,17 1,16 z"
       id="path4088"
       inkscape:connector-curvature="0"
       transform="matrix(0.8,0,0,-0.8,0,48)" /><rect
       style="fill:url(#linearGradient3819);fill-opacity:1;stroke:none"
       id="rect3811"
       width="14"
       height="14"
       x="2"
       y="2"
       transform="matrix(0.8,0,0,-0.8,0,48)" /><rect
       style="fill:url(#linearGradient3829);fill-opacity:1;stroke:none"
       id="rect3821"
       width="12"
       height="12"
       x="3"
       y="3"
       transform="matrix(0.8,0,0,-0.8,0,48)" /><path
       style="fill:none;stroke:#66ddbb;stroke-width:0.63999999;stroke-linecap:butt;stroke-linejoin:miter;stroke-miterlimit:4;stroke-opacity:1;stroke-dasharray:none"
       d="M 2.987376,37.6 7.2,39.2 l 4,-1.341225"
       id="path3833"
       inkscape:connector-curvature="0"
       sodipodi:nodetypes="ccc" /><path
       style="fill:none;stroke:#66ddbb;stroke-width:0.63999999;stroke-linecap:butt;stroke-linejoin:miter;stroke-miterlimit:4;stroke-opacity:1;stroke-dasharray:none"
       d="M 2.8327402,39.2 7.2,40.8 l 4,1.217755"
       id="path3833-3"
       inkscape:connector-curvature="0"
       sodipodi:nodetypes="ccc" /><path
       style="fill:none;stroke:#66ddbb;stroke-width:0.63999999;stroke-linecap:butt;stroke-linejoin:miter;stroke-miterlimit:4;stroke-opacity:1;stroke-dasharray:none"
       d="M 2.96827,40.8 7.2,42.4 l 4,2.4"
       id="path3833-3-1"
       inkscape:connector-curvature="0"
       sodipodi:nodetypes="ccc" /></g></svg>