<?xml version="1.0" encoding="UTF-8" standalone="no"?>
<!-- Created with Inkscape (http://www.inkscape.org/) -->

<svg
   xmlns:dc="http://purl.org/dc/elements/1.1/"
   xmlns:cc="http://creativecommons.org/ns#"
   xmlns:rdf="http://www.w3.org/1999/02/22-rdf-syntax-ns#"
   xmlns:svg="http://www.w3.org/2000/svg"
   xmlns="http://www.w3.org/2000/svg"
   xmlns:sodipodi="http://sodipodi.sourceforge.net/DTD/sodipodi-0.dtd"
   xmlns:inkscape="http://www.inkscape.org/namespaces/inkscape"
   id="svg2985"
   version="1.1"
   inkscape:version="0.48.2 r9819"
   width="125"
   height="50"
   xml:space="preserve"
   sodipodi:docname="histogram.svg"
   inkscape:export-filename="C:\Users\carcassi\Documents\Development\CSSGraphicsHG\icons\histogram.png"
   inkscape:export-xdpi="90"
   inkscape:export-ydpi="90"><metadata
     id="metadata2991"><rdf:RDF><cc:Work
         rdf:about=""><dc:format>image/svg+xml</dc:format><dc:type
           rdf:resource="http://purl.org/dc/dcmitype/StillImage" /><dc:title></dc:title></cc:Work></rdf:RDF></metadata><defs
     id="defs2989"><linearGradient
       id="linearGradient4071"><stop
         style="stop-color:#d58f2a;stop-opacity:1;"
         offset="0"
         id="stop4073" /><stop
         style="stop-color:#adadad;stop-opacity:1;"
         offset="1"
         id="stop4075" /></linearGradient><clipPath
       clipPathUnits="userSpaceOnUse"
       id="clipPath3001"><path
         d="M 0,50 125,50 125,0 0,0 0,50 z"
         id="path3003"
         inkscape:connector-curvature="0" /></clipPath><clipPath
       clipPathUnits="userSpaceOnUse"
       id="clipPath3013"><path
         d="M 0,50 125,50 125,0 0,0 0,50 z"
         id="path3015"
         inkscape:connector-curvature="0" /></clipPath><clipPath
       clipPathUnits="userSpaceOnUse"
       id="clipPath3025"><path
         d="M 0,50 125,50 125,0 0,0 0,50 z"
         id="path3027"
         inkscape:connector-curvature="0" /></clipPath><clipPath
       clipPathUnits="userSpaceOnUse"
       id="clipPath3037"><path
         d="M 0,50 125,50 125,0 0,0 0,50 z"
         id="path3039"
         inkscape:connector-curvature="0" /></clipPath></defs><sodipodi:namedview
     pagecolor="#ffffff"
     bordercolor="#666666"
     borderopacity="1"
     objecttolerance="10"
     gridtolerance="10"
     guidetolerance="10"
     inkscape:pageopacity="0"
     inkscape:pageshadow="2"
     inkscape:window-width="1920"
     inkscape:window-height="1125"
     id="namedview2987"
     showgrid="true"
     fit-margin-top="0"
     fit-margin-left="0"
     fit-margin-right="0"
     fit-margin-bottom="0"
     inkscape:zoom="22.627417"
     inkscape:cx="7.1468545"
     inkscape:cy="37.111169"
     inkscape:window-x="-9"
     inkscape:window-y="-9"
     inkscape:window-maximized="1"
     inkscape:current-layer="g2993"
     inkscape:snap-grids="true"
     inkscape:snap-to-guides="true"
     showguides="true"><inkscape:grid
       type="xygrid"
       id="grid3043"
       empspacing="5"
       visible="true"
       enabled="true"
       snapvisiblegridlinesonly="true" /></sodipodi:namedview><g
     id="g2993"
     inkscape:groupmode="layer"
     inkscape:label="icon-template"
     transform="matrix(1.25,0,0,-1.25,0,60)"><path
       d="m 13.6,34.4 -12.8,0 0,12.8 12.8,0 0,-12.8 z"
       style="fill:#ffffff;fill-opacity:1;fill-rule:nonzero;stroke:none"
       id="path2995"
       inkscape:connector-curvature="0" /><g
       id="g2997"
       transform="matrix(0.8,0,0,0.8,0,8)"
       style="fill:none;stroke:#000000;stroke-opacity:1"><g
         id="g2999"
         clip-path="url(#clipPath3001)"
         style="fill:none;stroke:#000000;stroke-opacity:1"><path
           d="m 17.5,32.5 -17,0 0,17 17,0 0,-17 z"
           style="fill:none;stroke:#000000;stroke-width:1;stroke-linecap:butt;stroke-linejoin:miter;stroke-miterlimit:10;stroke-opacity:1;stroke-dasharray:none"
           id="path3005"
           inkscape:connector-curvature="0" /></g></g><path
       d="m 34,27.6 -20,0 0,20 20,0 0,-20 z"
       style="fill:#ffffff;fill-opacity:1;fill-rule:nonzero;stroke:none"
       id="path3007"
       inkscape:connector-curvature="0" /><g
       id="g3009"
       transform="matrix(0.8,0,0,0.8,0,8)"
       style="stroke:#000000;stroke-opacity:1;fill:none"><g
         id="g3011"
         clip-path="url(#clipPath3013)"
         style="stroke:#000000;stroke-opacity:1;fill:none"><path
           d="m 42.5,24.5 -25,0 0,25 25,0 0,-25 z"
           style="fill:none;stroke:#000000;stroke-width:1;stroke-linecap:butt;stroke-linejoin:miter;stroke-miterlimit:10;stroke-opacity:1;stroke-dasharray:none"
           id="path3017"
           inkscape:connector-curvature="0" /></g></g><path
       d="m 99.6,8.4 -39.2,0 0,39.2 39.2,0 0,-39.2 z"
       style="fill:#ffffff;fill-opacity:1;fill-rule:nonzero;stroke:none"
       id="path3019"
       inkscape:connector-curvature="0" /><g
       id="g3021"
       transform="matrix(0.8,0,0,0.8,0,8)"
       style="stroke:#000000;stroke-opacity:1;fill:none"><g
         id="g3023"
         clip-path="url(#clipPath3025)"
         style="stroke:#000000;stroke-opacity:1;fill:none"><path
           d="m 124.5,0.5 -49,0 0,49 49,0 0,-49 z"
           style="fill:none;stroke:#000000;stroke-width:1;stroke-linecap:butt;stroke-linejoin:miter;stroke-miterlimit:10;stroke-opacity:1;stroke-dasharray:none"
           id="path3029"
           inkscape:connector-curvature="0" /></g></g><path
       d="m 60.4,21.2 -26.4,0 0,26.4 26.4,0 0,-26.4 z"
       style="fill:#ffffff;fill-opacity:1;fill-rule:nonzero;stroke:none"
       id="path3031"
       inkscape:connector-curvature="0" /><g
       id="g3033"
       transform="matrix(0.8,0,0,0.8,0,8)"
       style="fill:none;stroke:#000000;stroke-opacity:1"><g
         id="g3035"
         clip-path="url(#clipPath3037)"
         style="fill:none;stroke:#000000;stroke-opacity:1"><path
           d="m 75.5,16.5 -33,0 0,33 33,0 0,-33 z"
           style="fill:none;stroke:#000000;stroke-width:1;stroke-linecap:butt;stroke-linejoin:miter;stroke-miterlimit:10;stroke-opacity:1;stroke-dasharray:none"
           id="path3041"
           inkscape:connector-curvature="0" /></g></g><rect
       style="stroke-width:0.40000001000000002;stroke-linejoin:miter;stroke-miterlimit:4;stroke-dasharray:none;fill:none;stroke:none"
       id="rect3045"
       width="16"
       height="16"
       x="1"
       y="1"
       transform="matrix(0.8,0,0,-0.8,0,48)" /><path
       d="m 33.6,28 -19.2,0 0,19.2 19.2,0 0,-19.2 z"
       style="fill:#ffffff;fill-opacity:1;fill-rule:nonzero;stroke:none"
       id="path2995-4"
       inkscape:connector-curvature="0" /><path
       d="m 60,21.6 -25.6,0 0,25.6 25.6,0 0,-25.6 z"
       style="fill:#ffffff;fill-opacity:1;fill-rule:nonzero;stroke:none"
       id="path2995-4-0"
       inkscape:connector-curvature="0" /><path
       d="m 99.2,8.8 -38.4,0 0,38.4 38.4,0 0,-38.4 z"
       style="fill:#ffffff;fill-opacity:1;fill-rule:nonzero;stroke:none"
       id="path2995-4-0-9"
       inkscape:connector-curvature="0" /><rect
       style="fill:#b3b3b3"
       id="rect16"
       height="0.80000001"
       width="0.80000001"
       y="-39.200001"
       x="0.80000049"
       transform="scale(1,-1)" /><rect
       style="fill:#b3b3b3"
       id="rect18"
       height="0.80000001"
       width="0.80000001"
       y="-41.600002"
       x="0.80000049"
       transform="scale(1,-1)" /><rect
       style="fill:#b3b3b3"
       id="rect20"
       height="0.80000001"
       width="0.80000001"
       y="-44"
       x="0.80000049"
       transform="scale(1,-1)" /><rect
       style="fill:#b3b3b3"
       id="rect22"
       height="0.80000001"
       width="0.80000001"
       y="-36.800003"
       x="0.80000049"
       transform="scale(1,-1)" /><rect
       style="fill:#b3b3b3"
       id="rect24"
       height="0.80000001"
       width="0.80000001"
       y="-46.400002"
       x="0.80000049"
       transform="scale(1,-1)" /><rect
       style="fill:#b3b3b3"
       id="rect26"
       height="0.80000001"
       width="0.80000001"
       y="-35.200001"
       x="12.000001"
       transform="scale(1,-1)" /><rect
       style="fill:#b3b3b3"
       id="rect28"
       height="0.80000001"
       width="0.80000001"
       y="-35.200001"
       x="9.6000004"
       transform="scale(1,-1)" /><rect
       style="fill:#b3b3b3"
       id="rect30"
       height="0.80000001"
       width="0.80000001"
       y="-35.200001"
       x="7.2000008"
       transform="scale(1,-1)" /><rect
       style="fill:#b3b3b3"
       id="rect32"
       height="0.80000001"
       width="0.80000001"
       y="-35.200001"
       x="4.8000002"
       transform="scale(1,-1)" /><rect
       style="fill:#b3b3b3"
       id="rect34"
       height="0.80000001"
       width="0.80000001"
       y="-35.200001"
       x="2.4000003"
       transform="scale(1,-1)" /><path
       d="m 12.8,36.8 -9.6,0 0,9.6 9.6,0 0,-9.6 z"
       style="fill:#ffffff;fill-opacity:1;fill-rule:nonzero;stroke:none"
       id="path2995-5"
       inkscape:connector-curvature="0" /><path
       transform="scale(1,-1)"
       style="fill:#61c6ee;fill-opacity:1"
       d="m 4.8,-40.8 1.6,0 0,-3.2 1.6,0 0,-2.4 1.6,0 0,4 1.6,0 0,4 1.6,0 0,1.6 -8,0 z"
       id="rect42"
       inkscape:connector-curvature="0"
       sodipodi:nodetypes="ccccccccccccc" /><rect
       style="fill:#4d4d4d"
       id="rect58"
       height="10.4"
       width="0.80000001"
       y="-46.400002"
       x="2.4000003"
       transform="scale(1,-1)" /><rect
       style="fill:#4d4d4d"
       id="rect60"
       height="0.80000001"
       width="9.6000004"
       y="-36.800003"
       x="3.2000005"
       transform="scale(1,-1)" /><path
       style="fill:#6b97a6;fill-opacity:1"
       d="m 7.2,46.4 0,-0.8 0,-1.6 -1.6,0 0,-0.8 0,-2.4 -1.6,0 0,-0.8 0,-3.2 0.8,0 0,3.2 0.8,0 0.8,0 0,3.2 1.6,0 0,2.4 0.8,0 0,-4 1.6,0 0,-4 0.8,0 0.8,0 0,-0.8 0.8,0 0,0.8 0,0.8 -1.6,0 0,3.2 0,0.8 -1.6,0 0,3.2 0,0.8 z"
       id="rect58-1"
       inkscape:connector-curvature="0"
       sodipodi:nodetypes="ccccccccccccccccccccccccccccccccc"
       inkscape:export-xdpi="90"
       inkscape:export-ydpi="90" /><g
       id="g4079"
       style="fill:#9ddcf4;fill-opacity:1"
       transform="translate(-0.8000001,-1.9073486e-7)"><rect
         transform="scale(1,-1)"
         x="8"
         y="-43.207329"
         width="0.80000001"
         height="6.4073286"
         id="rect58-1-7-4-82-4-1"
         style="fill:#9ddcf4;fill-opacity:1" /><rect
         transform="scale(1,-1)"
         x="6.4000001"
         y="-40"
         width="0.80000001"
         height="3.1999998"
         id="rect58-1-7-4-82-4-1-7"
         style="fill:#9ddcf4;fill-opacity:1" /><rect
         transform="scale(1,-1)"
         x="9.6000004"
         y="-41.599998"
         width="0.80000091"
         height="4.8000007"
         id="rect58-1-7-4-82-4-1-7-1"
         style="fill:#9ddcf4;fill-opacity:1" /><rect
         transform="scale(1,-1)"
         x="11.2"
         y="-37.599998"
         width="0.80000001"
         height="0.79999983"
         id="rect58-1-7-4-82-4-1-7-1-1"
         style="fill:#9ddcf4;fill-opacity:1" /></g></g></svg>