<?xml version="1.0" encoding="UTF-8" standalone="no"?>
<!-- Generator: Adobe Illustrator 15.1.0, SVG Export Plug-In . SVG Version: 6.00 Build 0)  -->

<svg
   xmlns:dc="http://purl.org/dc/elements/1.1/"
   xmlns:cc="http://creativecommons.org/ns#"
   xmlns:rdf="http://www.w3.org/1999/02/22-rdf-syntax-ns#"
   xmlns:svg="http://www.w3.org/2000/svg"
   xmlns="http://www.w3.org/2000/svg"
   xmlns:sodipodi="http://sodipodi.sourceforge.net/DTD/sodipodi-0.dtd"
   xmlns:inkscape="http://www.inkscape.org/namespaces/inkscape"
   version="1.1"
   x="0px"
   y="0px"
   width="125px"
   height="50px"
   viewBox="0 0 125 50"
   enable-background="new 0 0 125 50"
   xml:space="preserve"
   id="svg2"
   inkscape:version="0.48.2 r9819"
   sodipodi:docname="line2d.svg"
   inkscape:export-filename="C:\Users\carcassi\Documents\Development\CSSGraphicsHG\icons\line2d.png"
   inkscape:export-xdpi="90"
   inkscape:export-ydpi="90"><metadata
   id="metadata272"><rdf:RDF><cc:Work
       rdf:about=""><dc:format>image/svg+xml</dc:format><dc:type
         rdf:resource="http://purl.org/dc/dcmitype/StillImage" /><dc:title></dc:title></cc:Work></rdf:RDF></metadata><defs
   id="defs270">
	
	
	
	
	
	
	
	
	
	
	
	
	
	
	
	
	
	
	
	
	
	
	
	
	
	
	
	
	
	
	
	
	
	
	
	
	
	
	
	
	
	
	
	
	
	
	
	
	
	
	
	
	
	
	
	
	
	
	
	
	
	
	
	
	
	
	
	
	
	
	
	
	
	
	
	
	
	
	
	
	
	
	
	
	
	
	
	
	
	
	
	
	
	
	
	
	
	
	
	
	
	
	
	
	
	
	
	
	
	
	
	
	
	
	
	
	
	
	
	
	
	
	
	
	
	
	

	
	
	
	
</defs><sodipodi:namedview
   pagecolor="#ffffff"
   bordercolor="#666666"
   borderopacity="1"
   objecttolerance="10"
   gridtolerance="10"
   guidetolerance="10"
   inkscape:pageopacity="0"
   inkscape:pageshadow="2"
   inkscape:window-width="1680"
   inkscape:window-height="975"
   id="namedview268"
   showgrid="true"
   inkscape:zoom="23.616"
   inkscape:cx="23.473732"
   inkscape:cy="36.197401"
   inkscape:window-x="-9"
   inkscape:window-y="-9"
   inkscape:window-maximized="1"
   inkscape:current-layer="svg2"><inkscape:grid
     type="xygrid"
     id="grid3382" /></sodipodi:namedview>
<rect
   style="fill:none;stroke:#000000;stroke-miterlimit:10"
   id="rect5"
   height="17"
   width="17"
   stroke-miterlimit="10"
   y="0.5"
   x="0.5" /><rect
   style="fill:#00ffff;fill-opacity:1;stroke:none"
   id="rect3386"
   width="16"
   height="16"
   x="1"
   y="1" /><rect
   style="fill:#ffffff;stroke:#000000;stroke-miterlimit:10"
   id="rect7"
   height="25"
   width="25"
   stroke-miterlimit="10"
   y="0.5"
   x="17.5" /><rect
   style="fill:#ffffff;stroke:#000000;stroke-miterlimit:10"
   id="rect9"
   height="49"
   width="49"
   stroke-miterlimit="10"
   y="0.5"
   x="75.5" /><rect
   style="fill:#ffffff;stroke:#000000;stroke-miterlimit:10"
   id="rect11"
   height="33"
   width="33"
   stroke-miterlimit="10"
   y="0.5"
   x="42.5" />
<rect
   style="fill:#b3b3b3"
   id="rect16"
   height="1"
   width="1"
   y="11"
   x="1" /><rect
   style="fill:#b3b3b3"
   id="rect18"
   height="1"
   width="1"
   y="8"
   x="1" /><rect
   style="fill:#b3b3b3"
   id="rect20"
   height="1"
   width="1"
   y="5"
   x="1" /><rect
   style="fill:#b3b3b3"
   id="rect22"
   height="1"
   width="1"
   y="14"
   x="1" /><rect
   style="fill:#b3b3b3"
   id="rect24"
   height="1"
   width="1"
   y="2"
   x="1" /><rect
   style="fill:#b3b3b3"
   id="rect26"
   height="1"
   width="1"
   y="16"
   x="15" /><rect
   style="fill:#b3b3b3"
   id="rect28"
   height="1"
   width="1"
   y="16"
   x="12" /><rect
   style="fill:#b3b3b3"
   id="rect30"
   height="1"
   width="1"
   y="16"
   x="9" /><rect
   style="fill:#b3b3b3"
   id="rect32"
   height="1"
   width="1"
   y="16"
   x="6" /><rect
   style="fill:#b3b3b3"
   id="rect34"
   height="1"
   width="1"
   y="16"
   x="3" /><rect
   style="fill:#4d4d4d"
   id="rect58"
   height="13"
   width="1"
   y="2"
   x="3" /><rect
   style="fill:#4d4d4d"
   id="rect60"
   height="1"
   width="12"
   y="14"
   x="4" /><rect
   style="fill:#b3b3b3"
   id="rect62"
   height="1"
   width="3"
   y="3"
   x="77" /><rect
   style="fill:#b3b3b3"
   id="rect64"
   height="3"
   width="1"
   y="45"
   x="81" /><rect
   style="fill:#4d4d4d"
   id="rect74"
   height="42"
   width="1"
   y="2"
   x="81" /><rect
   style="fill:#4d4d4d"
   id="rect76"
   height="1"
   width="41"
   y="43"
   x="82" /><rect
   style="fill:#b3b3b3"
   id="rect78"
   height="1"
   width="3"
   y="8"
   x="77" /><rect
   style="fill:#b3b3b3"
   id="rect80"
   height="1"
   width="3"
   y="13"
   x="77" /><rect
   style="fill:#b3b3b3"
   id="rect82"
   height="1"
   width="3"
   y="18"
   x="77" /><rect
   style="fill:#b3b3b3"
   id="rect84"
   height="1"
   width="3"
   y="23"
   x="77" /><rect
   style="fill:#b3b3b3"
   id="rect86"
   height="1"
   width="3"
   y="28"
   x="77" /><rect
   style="fill:#b3b3b3"
   id="rect88"
   height="1"
   width="3"
   y="33"
   x="77" /><rect
   style="fill:#b3b3b3"
   id="rect90"
   height="1"
   width="3"
   y="38"
   x="77" /><rect
   style="fill:#b3b3b3"
   id="rect92"
   height="1"
   width="3"
   y="43"
   x="77" /><rect
   style="fill:#b3b3b3"
   id="rect94"
   height="3"
   width="1"
   y="45"
   x="86" /><rect
   style="fill:#b3b3b3"
   id="rect96"
   height="3"
   width="1"
   y="45"
   x="91" /><rect
   style="fill:#b3b3b3"
   id="rect98"
   height="3"
   width="1"
   y="45"
   x="96" /><rect
   style="fill:#b3b3b3"
   id="rect100"
   height="3"
   width="1"
   y="45"
   x="101" /><rect
   style="fill:#b3b3b3"
   id="rect102"
   height="3"
   width="1"
   y="45"
   x="106" /><rect
   style="fill:#b3b3b3"
   id="rect104"
   height="3"
   width="1"
   y="45"
   x="111" /><rect
   style="fill:#b3b3b3"
   id="rect106"
   height="3"
   width="1"
   y="45"
   x="116" /><rect
   style="fill:#b3b3b3"
   id="rect108"
   height="3"
   width="1"
   y="45"
   x="121" />
<rect
   style="fill:#ffffff;stroke:none;stroke-width:0.69999999000000002;stroke-linejoin:round;stroke-miterlimit:4;stroke-opacity:1;stroke-dasharray:none"
   id="rect4158"
   width="12"
   height="12"
   x="4"
   y="2" /><path
   style="fill:none;stroke:#0f6483;stroke-width:1px;stroke-linecap:butt;stroke-linejoin:miter;stroke-opacity:1"
   d="M 5.4234417,13 10,6 16,4"
   id="path3388"
   inkscape:connector-curvature="0"
   sodipodi:nodetypes="ccc" /></svg>