<?xml version="1.0" encoding="UTF-8" standalone="no"?>
<!-- Created with Inkscape (http://www.inkscape.org/) -->

<svg
   xmlns:dc="http://purl.org/dc/elements/1.1/"
   xmlns:cc="http://creativecommons.org/ns#"
   xmlns:rdf="http://www.w3.org/1999/02/22-rdf-syntax-ns#"
   xmlns:svg="http://www.w3.org/2000/svg"
   xmlns="http://www.w3.org/2000/svg"
   xmlns:xlink="http://www.w3.org/1999/xlink"
   xmlns:sodipodi="http://sodipodi.sourceforge.net/DTD/sodipodi-0.dtd"
   xmlns:inkscape="http://www.inkscape.org/namespaces/inkscape"
   id="svg2985"
   version="1.1"
   inkscape:version="0.48.2 r9819"
   width="125"
   height="50"
   xml:space="preserve"
   sodipodi:docname="olog.svg"
   inkscape:export-filename="C:\Users\carcassi\Documents\Development\CSSGraphicsHG\icons\olog.png"
   inkscape:export-xdpi="90"
   inkscape:export-ydpi="90"><metadata
     id="metadata2991"><rdf:RDF><cc:Work
         rdf:about=""><dc:format>image/svg+xml</dc:format><dc:type
           rdf:resource="http://purl.org/dc/dcmitype/StillImage" /><dc:title /></cc:Work></rdf:RDF></metadata><defs
     id="defs2989"><linearGradient
       id="linearGradient3947"><stop
         style="stop-color:#ffffff;stop-opacity:1;"
         offset="0"
         id="stop3949" /><stop
         style="stop-color:#7a8f8d;stop-opacity:1;"
         offset="1"
         id="stop3951" /></linearGradient><linearGradient
       id="linearGradient3901"><stop
         style="stop-color:#5f92c5;stop-opacity:1;"
         offset="0"
         id="stop3903" /><stop
         style="stop-color:#7cafe2;stop-opacity:1;"
         offset="1"
         id="stop3905" /></linearGradient><linearGradient
       id="linearGradient3800"><stop
         style="stop-color:#2cbaec;stop-opacity:1;"
         offset="0"
         id="stop3802" /><stop
         style="stop-color:#167ddc;stop-opacity:1;"
         offset="1"
         id="stop3804" /></linearGradient><linearGradient
       id="linearGradient3792"><stop
         style="stop-color:#167ddc;stop-opacity:1;"
         offset="0"
         id="stop3794" /><stop
         style="stop-color:#62abef;stop-opacity:0.99193549;"
         offset="1"
         id="stop3796" /></linearGradient><clipPath
       clipPathUnits="userSpaceOnUse"
       id="clipPath3001"><path
         d="M 0,50 125,50 125,0 0,0 0,50 z"
         id="path3003"
         inkscape:connector-curvature="0" /></clipPath><clipPath
       clipPathUnits="userSpaceOnUse"
       id="clipPath3013"><path
         d="M 0,50 125,50 125,0 0,0 0,50 z"
         id="path3015"
         inkscape:connector-curvature="0" /></clipPath><clipPath
       clipPathUnits="userSpaceOnUse"
       id="clipPath3025"><path
         d="M 0,50 125,50 125,0 0,0 0,50 z"
         id="path3027"
         inkscape:connector-curvature="0" /></clipPath><clipPath
       clipPathUnits="userSpaceOnUse"
       id="clipPath3037"><path
         d="M 0,50 125,50 125,0 0,0 0,50 z"
         id="path3039"
         inkscape:connector-curvature="0" /></clipPath><linearGradient
       inkscape:collect="always"
       xlink:href="#linearGradient3800-7"
       id="linearGradient3806-1"
       x1="92"
       y1="39"
       x2="92"
       y2="8"
       gradientUnits="userSpaceOnUse"
       gradientTransform="matrix(0.8,0,0,0.77419362,5.6,-48.593549)" /><linearGradient
       id="linearGradient3800-7"><stop
         style="stop-color:#2cbaec;stop-opacity:1;"
         offset="0"
         id="stop3802-4" /><stop
         style="stop-color:#167ddc;stop-opacity:1;"
         offset="1"
         id="stop3804-0" /></linearGradient><linearGradient
       inkscape:collect="always"
       xlink:href="#linearGradient3901"
       id="linearGradient3907"
       x1="78.400002"
       y1="-18.4"
       x2="78.400002"
       y2="-42.400002"
       gradientUnits="userSpaceOnUse" /><linearGradient
       gradientTransform="matrix(1,0,0,-1,-4,-3.2)"
       inkscape:collect="always"
       xlink:href="#linearGradient3901-7"
       id="linearGradient3907-1"
       x1="78.400002"
       y1="-18.4"
       x2="78.400002"
       y2="-42.400002"
       gradientUnits="userSpaceOnUse" /><linearGradient
       id="linearGradient3901-7"><stop
         style="stop-color:#54bb44;stop-opacity:1;"
         offset="0"
         id="stop3903-7" /><stop
         style="stop-color:#60d74d;stop-opacity:1;"
         offset="1"
         id="stop3905-7" /></linearGradient><linearGradient
       inkscape:collect="always"
       xlink:href="#linearGradient3947-3"
       id="linearGradient3953-7"
       x1="111"
       y1="7"
       x2="86"
       y2="7"
       gradientUnits="userSpaceOnUse"
       gradientTransform="matrix(0.8,0,0,-0.26666667,-4,42.666667)" /><linearGradient
       id="linearGradient3947-3"><stop
         style="stop-color:#ffffff;stop-opacity:1;"
         offset="0"
         id="stop3949-3" /><stop
         style="stop-color:#7a8f8d;stop-opacity:1;"
         offset="1"
         id="stop3951-5" /></linearGradient><linearGradient
       inkscape:collect="always"
       xlink:href="#linearGradient3947"
       id="linearGradient4071"
       gradientUnits="userSpaceOnUse"
       gradientTransform="matrix(0.8,0,0,0.26666667,0,-45.866667)"
       x1="111"
       y1="7"
       x2="86"
       y2="7" /><linearGradient
       inkscape:collect="always"
       xlink:href="#linearGradient3901"
       id="linearGradient4073"
       gradientUnits="userSpaceOnUse"
       x1="78.400002"
       y1="-18.4"
       x2="78.400002"
       y2="-42.400002" /><linearGradient
       inkscape:collect="always"
       xlink:href="#linearGradient3901-7"
       id="linearGradient4086"
       gradientUnits="userSpaceOnUse"
       gradientTransform="matrix(0.93245956,0.36127436,0.36127436,-0.93245956,15.688822,-29.594877)"
       x1="78.400002"
       y1="-18.4"
       x2="78.400002"
       y2="-42.400002" /><linearGradient
       inkscape:collect="always"
       xlink:href="#linearGradient3947-3"
       id="linearGradient4090"
       gradientUnits="userSpaceOnUse"
       gradientTransform="matrix(0.74596765,0.28901949,0.09633983,-0.24865589,-0.8816286,13.173935)"
       x1="111"
       y1="7"
       x2="86"
       y2="7" /></defs><sodipodi:namedview
     pagecolor="#ffffff"
     bordercolor="#666666"
     borderopacity="1"
     objecttolerance="10"
     gridtolerance="10"
     guidetolerance="10"
     inkscape:pageopacity="0"
     inkscape:pageshadow="2"
     inkscape:window-width="1920"
     inkscape:window-height="1005"
     id="namedview2987"
     showgrid="true"
     fit-margin-top="0"
     fit-margin-left="0"
     fit-margin-right="0"
     fit-margin-bottom="0"
     inkscape:zoom="11.456"
     inkscape:cx="63.59879"
     inkscape:cy="23.480449"
     inkscape:window-x="-9"
     inkscape:window-y="-9"
     inkscape:window-maximized="1"
     inkscape:current-layer="g2993"
     showguides="true"
     inkscape:guide-bbox="true"><inkscape:grid
       type="xygrid"
       id="grid3043"
       empspacing="5"
       visible="true"
       enabled="true"
       snapvisiblegridlinesonly="true" /></sodipodi:namedview><g
     id="g2993"
     inkscape:groupmode="layer"
     inkscape:label="icon-template"
     transform="matrix(1.25,0,0,-1.25,0,60)"><path
       d="m 13.6,34.4 -12.8,0 0,12.8 12.8,0 0,-12.8 z"
       style="fill:#ffffff;fill-opacity:1;fill-rule:nonzero;stroke:none"
       id="path2995"
       inkscape:connector-curvature="0" /><g
       id="g2997"
       transform="matrix(0.8,0,0,0.8,0,8)"
       style="fill:none;stroke:#000000;stroke-opacity:1"><g
         id="g2999"
         clip-path="url(#clipPath3001)"
         style="fill:none;stroke:#000000;stroke-opacity:1"><path
           d="m 17.5,32.5 -17,0 0,17 17,0 0,-17 z"
           style="fill:none;stroke:#000000;stroke-width:1;stroke-linecap:butt;stroke-linejoin:miter;stroke-miterlimit:10;stroke-opacity:1;stroke-dasharray:none"
           id="path3005"
           inkscape:connector-curvature="0" /></g></g><path
       d="m 34,27.6 -20,0 0,20 20,0 0,-20 z"
       style="fill:#ffffff;fill-opacity:1;fill-rule:nonzero;stroke:none"
       id="path3007"
       inkscape:connector-curvature="0" /><g
       id="g3009"
       transform="matrix(0.8,0,0,0.8,0,8)"
       style="stroke:#000000;stroke-opacity:1;fill:none"><g
         id="g3011"
         clip-path="url(#clipPath3013)"
         style="stroke:#000000;stroke-opacity:1;fill:none"><path
           d="m 42.5,24.5 -25,0 0,25 25,0 0,-25 z"
           style="fill:none;stroke:#000000;stroke-width:1;stroke-linecap:butt;stroke-linejoin:miter;stroke-miterlimit:10;stroke-opacity:1;stroke-dasharray:none"
           id="path3017"
           inkscape:connector-curvature="0" /></g></g><path
       d="m 99.6,8.4 -39.2,0 0,39.2 39.2,0 0,-39.2 z"
       style="fill:#ffffff;fill-opacity:1;fill-rule:nonzero;stroke:none"
       id="path3019"
       inkscape:connector-curvature="0" /><g
       id="g3021"
       transform="matrix(0.8,0,0,0.8,0,8)"
       style="stroke:#000000;stroke-opacity:1;fill:none"><g
         id="g3023"
         clip-path="url(#clipPath3025)"
         style="stroke:#000000;stroke-opacity:1;fill:none"><path
           d="m 124.5,0.5 -49,0 0,49 49,0 0,-49 z"
           style="fill:none;stroke:#000000;stroke-width:1;stroke-linecap:butt;stroke-linejoin:miter;stroke-miterlimit:10;stroke-opacity:1;stroke-dasharray:none"
           id="path3029"
           inkscape:connector-curvature="0" /></g></g><path
       d="m 60.4,21.2 -26.4,0 0,26.4 26.4,0 0,-26.4 z"
       style="fill:#ffffff;fill-opacity:1;fill-rule:nonzero;stroke:none"
       id="path3031"
       inkscape:connector-curvature="0" /><g
       id="g3033"
       transform="matrix(0.8,0,0,0.8,0,8)"
       style="fill:none;stroke:#000000;stroke-opacity:1"><g
         id="g3035"
         clip-path="url(#clipPath3037)"
         style="fill:none;stroke:#000000;stroke-opacity:1"><path
           d="m 75.5,16.5 -33,0 0,33 33,0 0,-33 z"
           style="fill:none;stroke:#000000;stroke-width:1;stroke-linecap:butt;stroke-linejoin:miter;stroke-miterlimit:10;stroke-opacity:1;stroke-dasharray:none"
           id="path3041"
           inkscape:connector-curvature="0" /></g></g><rect
       style="stroke-width:0.40000001000000002;stroke-linejoin:miter;stroke-miterlimit:4;stroke-dasharray:none;fill:none;stroke:none"
       id="rect3045"
       width="16"
       height="16"
       x="1"
       y="1"
       transform="matrix(0.8,0,0,-0.8,0,48)" /><path
       d="m 33.6,28 -19.2,0 0,19.2 19.2,0 0,-19.2 z"
       style="fill:#ffffff;fill-opacity:1;fill-rule:nonzero;stroke:none"
       id="path2995-4"
       inkscape:connector-curvature="0" /><path
       d="m 60,21.6 -25.6,0 0,25.6 25.6,0 0,-25.6 z"
       style="fill:#ffffff;fill-opacity:1;fill-rule:nonzero;stroke:none"
       id="path2995-4-0"
       inkscape:connector-curvature="0" /><path
       d="m 99.2,8.8 -38.4,0 0,38.4 38.4,0 0,-38.4 z"
       style="fill:#ffffff;fill-opacity:1;fill-rule:nonzero;stroke:none"
       id="path2995-4-0-9"
       inkscape:connector-curvature="0" /><path
       style="fill:#136b0f;fill-opacity:0.7372549;stroke:none"
       d="m 63.2,36 c -0.289019,0.745968 0.167929,1.780955 0.913897,2.069974 l 16.411288,6.358429 c 1.491935,0.578039 2.526922,0.121091 3.104961,-1.370844 l 0.867059,-2.237903 c -0.578039,1.491935 -1.613026,1.948883 -3.104962,1.370844 L 63.48902,35.254032 z"
       id="rect3011-9-0-9"
       inkscape:connector-curvature="0"
       sodipodi:nodetypes="cccccccc" /><path
       style="fill:url(#linearGradient4090);fill-opacity:1;stroke:none"
       d="M 63.656949,37.034987 82.30614,44.260474 83.173198,42.022571 81.392243,42.1905 64.23499,35.543053 z"
       id="rect3945-9"
       inkscape:connector-curvature="0"
       sodipodi:nodetypes="cccccc" /><path
       style="fill:#136a0f;fill-opacity:0.7372549;stroke:none"
       d="M 63.489022,35.254035 81.392243,42.1905 c 1.491936,0.578039 2.526923,0.121091 3.104962,-1.370844 l 7.514507,-19.395159 c 0.578039,-1.491936 0.12109,-2.526923 -1.370845,-3.104962 L 72.737646,11.383069 z"
       id="rect3011-9-8"
       inkscape:connector-curvature="0"
       sodipodi:nodetypes="ccccccc" /><path
       style="fill:url(#linearGradient4086);fill-opacity:1;stroke:none"
       d="m 64.524009,34.797087 17.157254,6.647445 c 0.745968,0.28902 1.780955,-0.167928 2.069974,-0.913896 L 91.265744,21.135477 C 91.554763,20.38951 91.097815,19.354522 90.351848,19.065503 L 73.194594,12.418056 z"
       id="rect3011-1"
       inkscape:connector-curvature="0"
       sodipodi:nodetypes="ccccccc" /><path
       style="fill:#552200;fill-opacity:0.5;stroke:none"
       d="m 63.2,36 c -0.289019,0.745968 0.167929,1.780955 0.913897,2.069974 l 0.745968,0.289018 0.289019,-0.745966 -1.491935,-0.578039 0.578039,-1.491935 1.491935,0.578039 9.248624,-23.870967 -2.237903,-0.867058 z"
       id="rect3956-0"
       inkscape:connector-curvature="0"
       sodipodi:nodetypes="cccccccccc" /><g
       id="g4060"
       transform="translate(5.6,-2.4)"><path
         sodipodi:nodetypes="cccccccc"
         inkscape:connector-curvature="0"
         id="rect3011-9-0"
         d="m 68,44 c 0,0.8 0.8,1.6 1.6,1.6 l 17.6,0 c 1.6,0 2.4,-0.8 2.4,-2.4 l 0,-2.4 c 0,1.6 -0.8,2.4 -2.4,2.4 l -19.2,0 z"
         style="fill:#0f346a;fill-opacity:0.7372549;stroke:none" /><path
         sodipodi:nodetypes="cccccc"
         inkscape:connector-curvature="0"
         id="rect3945"
         d="m 68.8,-44.8 20,0 0,2.4 -1.6,-0.8 -18.399997,0 z"
         style="fill:url(#linearGradient4071);fill-opacity:1;stroke:none"
         transform="scale(1,-1)" /><path
         sodipodi:nodetypes="ccccccc"
         inkscape:connector-curvature="0"
         id="rect3011-9"
         d="M 68.000003,43.200002 87.2,43.2 c 1.6,0 2.4,-0.8 2.4,-2.4 l 0,-20.8 c 0,-1.6 -0.8,-2.4 -2.4,-2.4 l -19.199997,0 z"
         style="fill:#0f346a;fill-opacity:0.7372549;stroke:none" /><path
         sodipodi:nodetypes="ccccccc"
         inkscape:connector-curvature="0"
         id="rect3011"
         d="M 68.800003,-42.400002 87.2,-42.4 c 0.8,0 1.6,0.8 1.6,1.6 l 0,20.8 c 0,0.8 -0.8,1.6 -1.6,1.6 l -18.399997,0 z"
         style="fill:url(#linearGradient4073);fill-opacity:1;stroke:none"
         transform="scale(1,-1)" /><text
         transform="scale(1,-1)"
         sodipodi:linespacing="125%"
         id="text3843-0"
         y="-24.799999"
         x="72.800003"
         style="font-size:16.90265274px;font-style:normal;font-weight:normal;line-height:125%;letter-spacing:0px;word-spacing:0px;fill:#ffffff;fill-opacity:0.68907566;stroke:none;font-family:Sans"
         xml:space="preserve"><tspan
           style="font-style:oblique;font-variant:normal;font-weight:normal;font-stretch:normal;fill:#ffffff;fill-opacity:0.68907566;font-family:Verdana;-inkscape-font-specification:Verdana Oblique"
           y="-24.799999"
           x="72.800003"
           id="tspan3845-1"
           sodipodi:role="line">O</tspan></text>
<text
         transform="scale(1,-1)"
         sodipodi:linespacing="125%"
         id="text3843"
         y="-25.6"
         x="72"
         style="font-size:16.90265274px;font-style:normal;font-weight:normal;line-height:125%;letter-spacing:0px;word-spacing:0px;fill:#36598d;fill-opacity:1;stroke:none;font-family:Sans"
         xml:space="preserve"><tspan
           style="font-style:oblique;font-variant:normal;font-weight:normal;font-stretch:normal;fill:#36598d;fill-opacity:1;font-family:Verdana;-inkscape-font-specification:Verdana Oblique"
           y="-25.6"
           x="72"
           id="tspan3845"
           sodipodi:role="line">O</tspan></text>
<path
         sodipodi:nodetypes="cccccccccc"
         inkscape:connector-curvature="0"
         id="rect3956"
         d="m 68,-44 c 0,-0.8 0.8,-1.6 1.6,-1.6 l 0.8,2e-6 0,0.799998 -1.6,0 0,1.6 1.6,0 0,25.600002 -2.4,0 z"
         style="fill:#552200;fill-opacity:0.5;stroke:none"
         transform="scale(1,-1)" /></g></g></svg>