<?xml version="1.0" encoding="UTF-8" standalone="no"?>
<!-- Created with Inkscape (http://www.inkscape.org/) -->

<svg
   xmlns:dc="http://purl.org/dc/elements/1.1/"
   xmlns:cc="http://creativecommons.org/ns#"
   xmlns:rdf="http://www.w3.org/1999/02/22-rdf-syntax-ns#"
   xmlns:svg="http://www.w3.org/2000/svg"
   xmlns="http://www.w3.org/2000/svg"
   xmlns:xlink="http://www.w3.org/1999/xlink"
   xmlns:sodipodi="http://sodipodi.sourceforge.net/DTD/sodipodi-0.dtd"
   xmlns:inkscape="http://www.inkscape.org/namespaces/inkscape"
   id="svg2985"
   version="1.1"
   inkscape:version="0.48.3.1 r9886"
   width="125"
   height="50"
   xml:space="preserve"
   sodipodi:docname="olog.svg"
   inkscape:export-filename="C:\Users\carcassi\Documents\Development\CSSGraphicsHG\icons\olog.png"
   inkscape:export-xdpi="90"
   inkscape:export-ydpi="90"><metadata
     id="metadata2991"><rdf:RDF><cc:Work
         rdf:about=""><dc:format>image/svg+xml</dc:format><dc:type
           rdf:resource="http://purl.org/dc/dcmitype/StillImage" /><dc:title></dc:title></cc:Work></rdf:RDF></metadata><defs
     id="defs2989"><linearGradient
   id="linearGradient3947"><stop
     style="stop-color:#ffffff;stop-opacity:1;"
     offset="0"
     id="stop3949" /><stop
     style="stop-color:#7a8f8d;stop-opacity:1;"
     offset="1"
     id="stop3951" /></linearGradient><linearGradient
   id="linearGradient3901"><stop
     style="stop-color:#5f92c5;stop-opacity:1;"
     offset="0"
     id="stop3903" /><stop
     style="stop-color:#7cafe2;stop-opacity:1;"
     offset="1"
     id="stop3905" /></linearGradient><linearGradient
   id="linearGradient3800"><stop
     style="stop-color:#2cbaec;stop-opacity:1;"
     offset="0"
     id="stop3802" /><stop
     style="stop-color:#167ddc;stop-opacity:1;"
     offset="1"
     id="stop3804" /></linearGradient><linearGradient
   id="linearGradient3792"><stop
     style="stop-color:#167ddc;stop-opacity:1;"
     offset="0"
     id="stop3794" /><stop
     style="stop-color:#62abef;stop-opacity:0.99193549;"
     offset="1"
     id="stop3796" /></linearGradient><clipPath
   clipPathUnits="userSpaceOnUse"
   id="clipPath3001"><path
     d="M 0,50 125,50 125,0 0,0 0,50 z"
     id="path3003"
     inkscape:connector-curvature="0" /></clipPath><clipPath
   clipPathUnits="userSpaceOnUse"
   id="clipPath3013"><path
     d="M 0,50 125,50 125,0 0,0 0,50 z"
     id="path3015"
     inkscape:connector-curvature="0" /></clipPath><clipPath
   clipPathUnits="userSpaceOnUse"
   id="clipPath3025"><path
     d="M 0,50 125,50 125,0 0,0 0,50 z"
     id="path3027"
     inkscape:connector-curvature="0" /></clipPath><clipPath
   clipPathUnits="userSpaceOnUse"
   id="clipPath3037"><path
     d="M 0,50 125,50 125,0 0,0 0,50 z"
     id="path3039"
     inkscape:connector-curvature="0" /></clipPath><linearGradient
   inkscape:collect="always"
   xlink:href="#linearGradient3800-7"
   id="linearGradient3806-1"
   x1="92"
   y1="39"
   x2="92"
   y2="8"
   gradientUnits="userSpaceOnUse"
   gradientTransform="matrix(0.8,0,0,0.77419362,5.6,-48.593549)" /><linearGradient
   id="linearGradient3800-7"><stop
     style="stop-color:#2cbaec;stop-opacity:1;"
     offset="0"
     id="stop3802-4" /><stop
     style="stop-color:#167ddc;stop-opacity:1;"
     offset="1"
     id="stop3804-0" /></linearGradient><linearGradient
   inkscape:collect="always"
   xlink:href="#linearGradient3901"
   id="linearGradient3907"
   x1="78.400002"
   y1="-18.4"
   x2="78.400002"
   y2="-42.400002"
   gradientUnits="userSpaceOnUse" /><linearGradient
   gradientTransform="matrix(1,0,0,-1,-4,-3.2)"
   inkscape:collect="always"
   xlink:href="#linearGradient3901-7"
   id="linearGradient3907-1"
   x1="78.400002"
   y1="-18.4"
   x2="78.400002"
   y2="-42.400002"
   gradientUnits="userSpaceOnUse" /><linearGradient
   id="linearGradient3901-7"><stop
     style="stop-color:#54bb44;stop-opacity:1;"
     offset="0"
     id="stop3903-7" /><stop
     style="stop-color:#60d74d;stop-opacity:1;"
     offset="1"
     id="stop3905-7" /></linearGradient><linearGradient
   inkscape:collect="always"
   xlink:href="#linearGradient3947-3"
   id="linearGradient3953-7"
   x1="111"
   y1="7"
   x2="86"
   y2="7"
   gradientUnits="userSpaceOnUse"
   gradientTransform="matrix(0.8,0,0,-0.26666667,-4,42.666667)" /><linearGradient
   id="linearGradient3947-3"><stop
     style="stop-color:#ffffff;stop-opacity:1;"
     offset="0"
     id="stop3949-3" /><stop
     style="stop-color:#7a8f8d;stop-opacity:1;"
     offset="1"
     id="stop3951-5" /></linearGradient><linearGradient
   id="linearGradient3947-7"><stop
     style="stop-color:#ffffff;stop-opacity:1;"
     offset="0"
     id="stop3949-4" /><stop
     style="stop-color:#7a8f8d;stop-opacity:1;"
     offset="1"
     id="stop3951-0" /></linearGradient><linearGradient
   id="linearGradient3901-4"><stop
     style="stop-color:#5f92c5;stop-opacity:1;"
     offset="0"
     id="stop3903-8" /><stop
     style="stop-color:#7cafe2;stop-opacity:1;"
     offset="1"
     id="stop3905-8" /></linearGradient><linearGradient
   inkscape:collect="always"
   xlink:href="#linearGradient3947-7-1"
   id="linearGradient3134-6"
   gradientUnits="userSpaceOnUse"
   gradientTransform="matrix(0.32,0,0,-0.13333334,-24.32,46.933334)"
   x1="111"
   y1="7"
   x2="86"
   y2="7" /><linearGradient
   id="linearGradient3947-7-1"><stop
     style="stop-color:#ffffff;stop-opacity:1;"
     offset="0"
     id="stop3949-4-4" /><stop
     style="stop-color:#7a8f8d;stop-opacity:1;"
     offset="1"
     id="stop3951-0-2" /></linearGradient><linearGradient
   inkscape:collect="always"
   xlink:href="#linearGradient3901-4-2"
   id="linearGradient3130-3"
   gradientUnits="userSpaceOnUse"
   x1="78.400002"
   y1="-18.4"
   x2="78.400002"
   y2="-42.400002"
   gradientTransform="matrix(0.4,0,0,-0.4,-24.320001,27.839999)" /><linearGradient
   id="linearGradient3901-4-2"><stop
     style="stop-color:#5f92c5;stop-opacity:1;"
     offset="0"
     id="stop3903-8-2" /><stop
     style="stop-color:#7cafe2;stop-opacity:1;"
     offset="1"
     id="stop3905-8-1" /></linearGradient><linearGradient
   id="linearGradient3947-7-1-5"><stop
     style="stop-color:#ffffff;stop-opacity:1;"
     offset="0"
     id="stop3949-4-4-4" /><stop
     style="stop-color:#7a8f8d;stop-opacity:1;"
     offset="1"
     id="stop3951-0-2-3" /></linearGradient><linearGradient
   id="linearGradient3901-4-2-2"><stop
     style="stop-color:#5f92c5;stop-opacity:1;"
     offset="0"
     id="stop3903-8-2-3" /><stop
     style="stop-color:#7cafe2;stop-opacity:1;"
     offset="1"
     id="stop3905-8-1-3" /></linearGradient><linearGradient
   id="linearGradient3947-7-1-5-7"><stop
     style="stop-color:#ffffff;stop-opacity:1;"
     offset="0"
     id="stop3949-4-4-4-4" /><stop
     style="stop-color:#7a8f8d;stop-opacity:1;"
     offset="1"
     id="stop3951-0-2-3-0" /></linearGradient><linearGradient
   id="linearGradient3901-4-2-2-4"><stop
     style="stop-color:#5f92c5;stop-opacity:1;"
     offset="0"
     id="stop3903-8-2-3-8" /><stop
     style="stop-color:#7cafe2;stop-opacity:1;"
     offset="1"
     id="stop3905-8-1-3-8" /></linearGradient><linearGradient
   id="linearGradient3947-7-1-5-7-1"><stop
     style="stop-color:#ffffff;stop-opacity:1;"
     offset="0"
     id="stop3949-4-4-4-4-4" /><stop
     style="stop-color:#7a8f8d;stop-opacity:1;"
     offset="1"
     id="stop3951-0-2-3-0-2" /></linearGradient><linearGradient
   id="linearGradient3901-4-2-2-4-2"><stop
     style="stop-color:#5f92c5;stop-opacity:1;"
     offset="0"
     id="stop3903-8-2-3-8-2" /><stop
     style="stop-color:#7cafe2;stop-opacity:1;"
     offset="1"
     id="stop3905-8-1-3-8-1" /></linearGradient><linearGradient
   inkscape:collect="always"
   xlink:href="#linearGradient3947-7-1-5-7-1"
   id="linearGradient4121"
   gradientUnits="userSpaceOnUse"
   gradientTransform="matrix(0.79737504,0,0,-0.33223961,-69.173107,22.790814)"
   x1="111"
   y1="7"
   x2="86"
   y2="7" /><linearGradient
   inkscape:collect="always"
   xlink:href="#linearGradient3901-7"
   id="linearGradient4123"
   gradientUnits="userSpaceOnUse"
   gradientTransform="matrix(0.9967188,0,0,-0.9967188,-69.837587,-25.184589)"
   x1="78.400002"
   y1="-18.4"
   x2="78.400002"
   y2="-42.400002" />

<linearGradient
   inkscape:collect="always"
   xlink:href="#linearGradient3901-4-2-2-4"
   id="linearGradient4131"
   gradientUnits="userSpaceOnUse"
   gradientTransform="matrix(0.9967188,0,0,-0.9967188,4.8134095,-4.4790873)"
   x1="78.400002"
   y1="-18.4"
   x2="78.400002"
   y2="-42.400002" /><linearGradient
   inkscape:collect="always"
   xlink:href="#linearGradient3947-7-1-5-7"
   id="linearGradient4135"
   gradientUnits="userSpaceOnUse"
   gradientTransform="matrix(0.79737504,0,0,-0.33223961,5.47789,43.496316)"
   x1="111"
   y1="7"
   x2="86"
   y2="7" />



<linearGradient
   inkscape:collect="always"
   xlink:href="#linearGradient3901-4-2-2"
   id="linearGradient4145"
   gradientUnits="userSpaceOnUse"
   gradientTransform="matrix(0.75,0,0,-0.75,-12.400001,9.9999975)"
   x1="78.400002"
   y1="-18.4"
   x2="78.400002"
   y2="-42.400002" /><linearGradient
   inkscape:collect="always"
   xlink:href="#linearGradient3947-7-1-5"
   id="linearGradient4148"
   gradientUnits="userSpaceOnUse"
   gradientTransform="matrix(0.6,0,0,-0.25000001,-11.9,46.100001)"
   x1="111"
   y1="7"
   x2="86"
   y2="7" />



<linearGradient
   inkscape:collect="always"
   xlink:href="#linearGradient3901-4-2"
   id="linearGradient4159"
   gradientUnits="userSpaceOnUse"
   gradientTransform="matrix(0.6,0,0,-0.6,-23.680001,18.559998)"
   x1="78.400002"
   y1="-18.4"
   x2="78.400002"
   y2="-42.400002" /><linearGradient
   inkscape:collect="always"
   xlink:href="#linearGradient3947-7-1"
   id="linearGradient4163"
   gradientUnits="userSpaceOnUse"
   gradientTransform="matrix(0.48,0,0,-0.20000001,-23.28,46.800001)"
   x1="111"
   y1="7"
   x2="86"
   y2="7" />



<linearGradient
   inkscape:collect="always"
   xlink:href="#linearGradient3901-4"
   id="linearGradient4184"
   gradientUnits="userSpaceOnUse"
   gradientTransform="matrix(0.4,0,0,-0.4,-24.320001,27.839999)"
   x1="78.400002"
   y1="-18.4"
   x2="78.400002"
   y2="-42.400002" /><linearGradient
   inkscape:collect="always"
   xlink:href="#linearGradient3947-7"
   id="linearGradient4188"
   gradientUnits="userSpaceOnUse"
   gradientTransform="matrix(0.32,0,0,-0.13333334,-24.32,46.933334)"
   x1="111"
   y1="7"
   x2="86"
   y2="7" /></defs><sodipodi:namedview
     pagecolor="#ffffff"
     bordercolor="#666666"
     borderopacity="1"
     objecttolerance="10"
     gridtolerance="10"
     guidetolerance="10"
     inkscape:pageopacity="0"
     inkscape:pageshadow="2"
     inkscape:window-width="1280"
     inkscape:window-height="738"
     id="namedview2987"
     showgrid="true"
     fit-margin-top="0"
     fit-margin-left="0"
     fit-margin-right="0"
     fit-margin-bottom="0"
     inkscape:zoom="11.456"
     inkscape:cx="36.709206"
     inkscape:cy="34.768052"
     inkscape:window-x="-8"
     inkscape:window-y="-8"
     inkscape:window-maximized="1"
     inkscape:current-layer="g2993"
     showguides="true"
     inkscape:guide-bbox="true"><inkscape:grid
       type="xygrid"
       id="grid3043"
       empspacing="5"
       visible="true"
       enabled="true"
       snapvisiblegridlinesonly="true" /></sodipodi:namedview><g
     id="g2993"
     inkscape:groupmode="layer"
     inkscape:label="icon-template"
     transform="matrix(1.25,0,0,-1.25,0,60)"><path
   d="m 13.6,34.4 -12.8,0 0,12.8 12.8,0 0,-12.8 z"
   style="fill:#ffffff;fill-opacity:1;fill-rule:nonzero;stroke:none"
   id="path2995"
   inkscape:connector-curvature="0" /><g
   id="g2997"
   transform="matrix(0.8,0,0,0.8,0,8)"
   style="fill:none;stroke:#000000;stroke-opacity:1"><g
     id="g2999"
     clip-path="url(#clipPath3001)"
     style="fill:none;stroke:#000000;stroke-opacity:1"><path
       d="m 17.5,32.5 -17,0 0,17 17,0 0,-17 z"
       style="fill:none;stroke:#000000;stroke-width:1;stroke-linecap:butt;stroke-linejoin:miter;stroke-miterlimit:10;stroke-opacity:1;stroke-dasharray:none"
       id="path3005"
       inkscape:connector-curvature="0" /></g></g><path
   d="m 34,27.6 -20,0 0,20 20,0 0,-20 z"
   style="fill:#ffffff;fill-opacity:1;fill-rule:nonzero;stroke:none"
   id="path3007"
   inkscape:connector-curvature="0" /><g
   id="g3009"
   transform="matrix(0.8,0,0,0.8,0,8)"
   style="stroke:#000000;stroke-opacity:1;fill:none"><g
     id="g3011"
     clip-path="url(#clipPath3013)"
     style="stroke:#000000;stroke-opacity:1;fill:none"><path
       d="m 42.5,24.5 -25,0 0,25 25,0 0,-25 z"
       style="fill:none;stroke:#000000;stroke-width:1;stroke-linecap:butt;stroke-linejoin:miter;stroke-miterlimit:10;stroke-opacity:1;stroke-dasharray:none"
       id="path3017"
       inkscape:connector-curvature="0" /></g></g><path
   d="m 99.6,8.4 -39.2,0 0,39.2 39.2,0 0,-39.2 z"
   style="fill:#ffffff;fill-opacity:1;fill-rule:nonzero;stroke:none"
   id="path3019"
   inkscape:connector-curvature="0" /><g
   id="g3021"
   transform="matrix(0.8,0,0,0.8,0,8)"
   style="stroke:#000000;stroke-opacity:1;fill:none"><g
     id="g3023"
     clip-path="url(#clipPath3025)"
     style="stroke:#000000;stroke-opacity:1;fill:none"><path
       d="m 124.5,0.5 -49,0 0,49 49,0 0,-49 z"
       style="fill:none;stroke:#000000;stroke-width:1;stroke-linecap:butt;stroke-linejoin:miter;stroke-miterlimit:10;stroke-opacity:1;stroke-dasharray:none"
       id="path3029"
       inkscape:connector-curvature="0" /></g></g><path
   d="m 60.4,21.2 -26.4,0 0,26.4 26.4,0 0,-26.4 z"
   style="fill:#ffffff;fill-opacity:1;fill-rule:nonzero;stroke:none"
   id="path3031"
   inkscape:connector-curvature="0" /><g
   id="g3033"
   transform="matrix(0.8,0,0,0.8,0,8)"
   style="fill:none;stroke:#000000;stroke-opacity:1"><g
     id="g3035"
     clip-path="url(#clipPath3037)"
     style="fill:none;stroke:#000000;stroke-opacity:1"><path
       d="m 75.5,16.5 -33,0 0,33 33,0 0,-33 z"
       style="fill:none;stroke:#000000;stroke-width:1;stroke-linecap:butt;stroke-linejoin:miter;stroke-miterlimit:10;stroke-opacity:1;stroke-dasharray:none"
       id="path3041"
       inkscape:connector-curvature="0" /></g></g><rect
   style="stroke-width:0.40000001000000002;stroke-linejoin:miter;stroke-miterlimit:4;stroke-dasharray:none;fill:none;stroke:none"
   id="rect3045"
   width="16"
   height="16"
   x="1"
   y="1"
   transform="matrix(0.8,0,0,-0.8,0,48)" /><path
   d="m 33.6,28 -19.2,0 0,19.2 19.2,0 0,-19.2 z"
   style="fill:#ffffff;fill-opacity:1;fill-rule:nonzero;stroke:none"
   id="path2995-4"
   inkscape:connector-curvature="0" /><path
   d="m 60,21.6 -25.6,0 0,25.6 25.6,0 0,-25.6 z"
   style="fill:#ffffff;fill-opacity:1;fill-rule:nonzero;stroke:none"
   id="path2995-4-0"
   inkscape:connector-curvature="0" /><path
   d="m 99.2,8.8 -38.4,0 0,38.4 38.4,0 0,-38.4 z"
   style="fill:#ffffff;fill-opacity:1;fill-rule:nonzero;stroke:none"
   id="path2995-4-0-9"
   inkscape:connector-curvature="0" /><rect
   style="fill:#ffffff;fill-opacity:1;stroke:none"
   id="rect3259"
   width="8"
   height="1.6"
   x="3.2"
   y="-45.599998"
   transform="scale(1,-1)" /><path
   style="fill:#0f346a;fill-opacity:0.7372549;stroke:none"
   d="m 2.4,46.4 0.8,0.8 8,0 0.8,-0.8 0,-1.6 c 0,0.8 0,0.8 -0.8,0.8 l -8.8,0 z"
   id="rect3011-9-0-4"
   inkscape:connector-curvature="0"
   sodipodi:nodetypes="cccccccc" /><path
   style="fill:url(#linearGradient4188);fill-opacity:1;stroke:none"
   d="m 3.2,46.4 8,0 0,-1.2 -0.64,0.4 -7.3599988,0 z"
   id="rect3945-5"
   inkscape:connector-curvature="0"
   sodipodi:nodetypes="cccccc" /><path
   style="fill:#0f346a;fill-opacity:0.7372549;stroke:none"
   d="M 2.4,45.600001 11.2,45.6 c 0.8,0 0.8,0 0.8,-0.8 l 0,-9.6 -0.8,-0.8 -8.8,0 z"
   id="rect3011-9-5"
   inkscape:connector-curvature="0"
   sodipodi:nodetypes="ccccccc" /><path
   style="fill:url(#linearGradient4184);fill-opacity:1;stroke:none"
   d="m 3.2,44.8 7.2,0 c 0.443447,0 0.8,-0.356553 0.8,-0.8 l 0,-8 -0.8,-0.8 -7.2,0 z"
   id="rect3011-17"
   inkscape:connector-curvature="0"
   sodipodi:nodetypes="ccccccc" /><text
   xml:space="preserve"
   style="font-size:6.76106119px;font-style:normal;font-weight:normal;line-height:125%;letter-spacing:0px;word-spacing:0px;fill:#ffffff;fill-opacity:0.68907566;stroke:none;font-family:Sans"
   x="4.8987579"
   y="-37.303722"
   id="text3843-0-1"
   sodipodi:linespacing="125%"
   transform="scale(1,-1)"><tspan
     sodipodi:role="line"
     id="tspan3845-1-1"
     x="4.8987579"
     y="-37.303722"
     style="font-style:oblique;font-variant:normal;font-weight:bold;font-stretch:normal;fill:#ffffff;fill-opacity:0.68907566;font-family:Verdana;-inkscape-font-specification:Verdana Bold Oblique">O</tspan></text>
<text
   xml:space="preserve"
   style="font-size:6.76106119px;font-style:normal;font-weight:normal;line-height:125%;letter-spacing:0px;word-spacing:0px;fill:#36598d;fill-opacity:1;stroke:none;font-family:Sans"
   x="4.4832449"
   y="-37.832142"
   id="text3843-5"
   sodipodi:linespacing="125%"
   transform="scale(1,-1)"><tspan
     sodipodi:role="line"
     id="tspan3845-2"
     x="4.4832449"
     y="-37.832142"
     style="font-style:oblique;font-variant:normal;font-weight:bold;font-stretch:normal;fill:#36598d;fill-opacity:1;font-family:Verdana;-inkscape-font-specification:Verdana Bold Oblique">O</tspan></text>
<path
   style="fill:#552200;fill-opacity:0.5;stroke:none"
   d="m 2.4,46.4 0.8,0.8 0.8,0 0,-0.8 -0.8,0 0,-0.8 0.8,0 0,-11.2 -1.6,0 z"
   id="rect3956-7"
   inkscape:connector-curvature="0"
   sodipodi:nodetypes="cccccccccc" /><rect
   style="fill:#ffffff;fill-opacity:1;stroke:none"
   id="rect3257"
   width="12.799999"
   height="1.6"
   x="17.6"
   y="-44.799999"
   transform="scale(1,-1)" /><path
   style="fill:#0f346a;fill-opacity:0.7372549;stroke:none"
   d="M 16.8,45.975311 C 16.8,46.696274 17.328416,47.2 18,47.2 l 11.6,0 c 0.8,0 1.6,-0.8 1.6,-1.6 l 0,-2.4 c 0,0.8 -0.8,1.6 -1.6,1.6 l -12.8,0 z"
   id="rect3011-9-0-4-8"
   inkscape:connector-curvature="0"
   sodipodi:nodetypes="cccccccc" /><path
   style="fill:url(#linearGradient4163);fill-opacity:1;stroke:none"
   d="m 17.6,46.4 12.8,0 0,-2.4 -1.36,0.8 -11.44,0 z"
   id="rect3945-5-5"
   inkscape:connector-curvature="0"
   sodipodi:nodetypes="cccccc" /><path
   style="fill:#0f346a;fill-opacity:0.7372549;stroke:none"
   d="M 16.8,44.800001 29.6,44.8 c 0.8,0 1.6,-0.8 1.6,-1.6 l 0,-13.6 C 31.2,28.8 30.4,28 29.6,28 l -12.8,0 z"
   id="rect3011-9-5-7"
   inkscape:connector-curvature="0"
   sodipodi:nodetypes="ccccccc" /><path
   style="fill:url(#linearGradient4159);fill-opacity:1;stroke:none"
   d="m 17.6,44 12,0 0.8,-0.8 0,-13.6 -0.8,-0.8 -12,0 z"
   id="rect3011-17-6"
   inkscape:connector-curvature="0"
   sodipodi:nodetypes="ccccccc" /><text
   xml:space="preserve"
   style="font-size:10.14159203px;font-style:normal;font-weight:normal;line-height:125%;letter-spacing:0px;word-spacing:0px;fill:#ffffff;fill-opacity:0.68907566;stroke:none;font-family:Sans"
   x="20.597517"
   y="-32.503723"
   id="text3843-0-1-1"
   sodipodi:linespacing="125%"
   transform="scale(1,-1)"><tspan
     sodipodi:role="line"
     id="tspan3845-1-1-8"
     x="20.597517"
     y="-32.503723"
     style="font-style:oblique;font-variant:normal;font-weight:bold;font-stretch:normal;fill:#ffffff;fill-opacity:0.68907566;font-family:Verdana;-inkscape-font-specification:Verdana Bold Oblique">O</tspan></text>
<text
   xml:space="preserve"
   style="font-size:10.14159203px;font-style:normal;font-weight:normal;line-height:125%;letter-spacing:0px;word-spacing:0px;fill:#36598d;fill-opacity:1;stroke:none;font-family:Sans"
   x="19.974249"
   y="-33.296352"
   id="text3843-5-9"
   sodipodi:linespacing="125%"
   transform="scale(1,-1)"><tspan
     sodipodi:role="line"
     id="tspan3845-2-2"
     x="19.974249"
     y="-33.296352"
     style="font-style:oblique;font-variant:normal;font-weight:bold;font-stretch:normal;fill:#36598d;fill-opacity:1;font-family:Verdana;-inkscape-font-specification:Verdana Bold Oblique">O</tspan></text>
<path
   style="fill:#552200;fill-opacity:0.5;stroke:none"
   d="m 16.8,46 c 0,0.770342 0.454347,1.2 1.2,1.2 l 1.2,0 0,-0.8 -1.6,0 0,-1.6 1.6,0 0,-16.8 -2.4,0 z"
   id="rect3956-7-7"
   inkscape:connector-curvature="0"
   sodipodi:nodetypes="cccccccccc" /><rect
   style="fill:#ffffff;fill-opacity:1;stroke:none"
   id="rect3257-1"
   width="15.999999"
   height="2.4000001"
   x="39.200001"
   y="-44"
   transform="scale(1,-1)" /><path
   style="fill:#0f346a;fill-opacity:0.7372549;stroke:none"
   d="m 38.4,44.8 c 0,0.8 0.8,1.6 1.6,1.6 l 14.4,0 c 0.8,0 1.6,-0.8 1.6,-1.6 l 0,-3.2 c 0,0.8 -0.8,1.6 -1.6,1.6 l -16,0 z"
   id="rect3011-9-0-4-8-1"
   inkscape:connector-curvature="0"
   sodipodi:nodetypes="cccccccc" /><path
   style="fill:url(#linearGradient4148);fill-opacity:1;stroke:none"
   d="m 39.2,44.8 0.8,0.8 14.4,0 0.8,-0.8 0,-2.4 -1.6,0.8 -13.6,0 -0.8,0.8 z"
   id="rect3945-5-5-3"
   inkscape:connector-curvature="0"
   sodipodi:nodetypes="ccccccccc" /><path
   style="fill:#0f346a;fill-opacity:0.7372549;stroke:none"
   d="m 38.4,43.2 16,0 c 0.8,0 1.6,-0.8 1.6,-1.6 L 56,24 c 0,-0.8 -0.8,-1.6 -1.6,-1.6 l -16,0 z"
   id="rect3011-9-5-7-8"
   inkscape:connector-curvature="0"
   sodipodi:nodetypes="ccccccc" /><path
   style="fill:url(#linearGradient4145);fill-opacity:1;stroke:none"
   d="m 39.2,42.4 13.6,0 2.4,-2.4 0,-14.4 -2.4,-2.4 -13.6,0 z"
   id="rect3011-17-6-7"
   inkscape:connector-curvature="0"
   sodipodi:nodetypes="ccccccc" /><text
   xml:space="preserve"
   style="font-size:12.67699051px;font-style:normal;font-weight:normal;line-height:125%;letter-spacing:0px;word-spacing:0px;fill:#ffffff;fill-opacity:0.68907566;stroke:none;font-family:Sans"
   x="43.095036"
   y="-27.602482"
   id="text3843-0-1-1-4"
   sodipodi:linespacing="125%"
   transform="scale(1,-1)"><tspan
     sodipodi:role="line"
     id="tspan3845-1-1-8-2"
     x="43.095036"
     y="-27.602482"
     style="font-style:oblique;font-variant:normal;font-weight:bold;font-stretch:normal;fill:#ffffff;fill-opacity:0.68907566;font-family:Verdana;-inkscape-font-specification:Verdana Bold Oblique">O</tspan></text>
<text
   xml:space="preserve"
   style="font-size:12.67699051px;font-style:normal;font-weight:normal;line-height:125%;letter-spacing:0px;word-spacing:0px;fill:#36598d;fill-opacity:1;stroke:none;font-family:Sans"
   x="42.315948"
   y="-28.593267"
   id="text3843-5-9-7"
   sodipodi:linespacing="125%"
   transform="scale(1,-1)"><tspan
     sodipodi:role="line"
     id="tspan3845-2-2-7"
     x="42.315948"
     y="-28.593267"
     style="font-style:oblique;font-variant:normal;font-weight:bold;font-stretch:normal;fill:#36598d;fill-opacity:1;font-family:Verdana;-inkscape-font-specification:Verdana Bold Oblique">O</tspan></text>
<path
   style="fill:#552200;fill-opacity:0.5;stroke:none"
   d="m 38.4,44.8 c 0,0.8 0.8,1.6 1.6,1.6 l 1.6,0 0,-0.8 -1.6,0 -0.8,-0.8 0,-0.8 0.8,-0.8 1.6,0 0,-20.8 -3.2,0 z"
   id="rect3956-7-7-9"
   inkscape:connector-curvature="0"
   sodipodi:nodetypes="cccccccccccc" />

<g
   id="g4113"
   transform="matrix(0.95603562,0.29325056,-0.29325056,0.95603562,72.251326,18.500747)"><rect
     transform="scale(1,-1)"
     y="-20"
     x="-1.2633322"
     height="3.1895003"
     width="21.263332"
     id="rect3257-1-4-8"
     style="fill:#ffffff;fill-opacity:1;stroke:none" /><path
     sodipodi:nodetypes="cccccccc"
     inkscape:connector-curvature="0"
     id="rect3011-9-0-4-8-1-5-5"
     d="m -2.650997,21.694498 c 0,0.8 0.8,1.6 1.6,1.6 l 20.8,0 c 0.8,0 1.6,-0.8 1.6,-1.6 l 0,-3.2 c 0,0.8 -0.8,1.6 -1.6,1.6 l -22.4,0 z"
     style="fill:#136b0f;fill-opacity:0.7372549;stroke:none" /><path
     sodipodi:nodetypes="ccccccccc"
     inkscape:connector-curvature="0"
     id="rect3945-5-5-3-1-7"
     d="m -1.850997,21.694498 0.8,0.8 20.8,0 0.8,-0.8 0,-2.4 -1.6,0.8 -20,0 -0.8,0.8 z"
     style="fill:url(#linearGradient4121);fill-opacity:1;stroke:none" /><path
     sodipodi:nodetypes="ccccccc"
     inkscape:connector-curvature="0"
     id="rect3011-9-5-7-8-5-6"
     d="m -2.650997,20.094498 22.4,0 c 0.8,0 1.6,-0.8 1.6,-1.6 l 0,-25.6 c 0,-0.8 -0.8,-1.6 -1.6,-1.6 l -22.4,0 z"
     style="fill:#136b0f;fill-opacity:0.7372549;stroke:none" /><path
     sodipodi:nodetypes="ccccccc"
     inkscape:connector-curvature="0"
     id="rect3011-17-6-7-7-1"
     d="m -1.850997,19.294498 20,0 2.4,-2.4 0,-22.4 -2.4,-2.4 -20,0 z"
     style="fill:url(#linearGradient4123);fill-opacity:1;stroke:none" /><path
     sodipodi:nodetypes="cccccccccccc"
     inkscape:connector-curvature="0"
     id="rect3956-7-7-9-7-9"
     d="m -2.650997,21.694498 c 0,0.8 0.8,1.6 1.6,1.6 l 3.2,0 0,-0.8 -3.2,0 -0.8,-0.8 0,-0.8 0.8,-0.8 3.2,0 0,-28.8 -4.8,0 z"
     style="fill:#552200;fill-opacity:0.5;stroke:none" /></g><rect
   style="fill:#ffffff;fill-opacity:1;stroke:none"
   id="rect3257-1-4"
   width="21.263332"
   height="3.1895003"
   x="73.387665"
   y="-40.705502"
   transform="scale(1,-1)" /><path
   style="fill:#0f346a;fill-opacity:0.7372549;stroke:none"
   d="m 72,42.4 c 0,0.8 0.8,1.6 1.6,1.6 l 20.8,0 c 0.8,0 1.6,-0.8 1.6,-1.6 l 0,-3.2 c 0,0.8 -0.8,1.6 -1.6,1.6 l -22.4,0 z"
   id="rect3011-9-0-4-8-1-5"
   inkscape:connector-curvature="0"
   sodipodi:nodetypes="cccccccc" /><path
   style="fill:url(#linearGradient4135);fill-opacity:1;stroke:none"
   d="m 72.8,42.4 0.8,0.8 20.8,0 0.8,-0.8 0,-2.4 -1.6,0.8 -20,0 -0.8,0.8 z"
   id="rect3945-5-5-3-1"
   inkscape:connector-curvature="0"
   sodipodi:nodetypes="ccccccccc" /><path
   style="fill:#0f346a;fill-opacity:0.7372549;stroke:none"
   d="m 72,40.8 22.4,0 C 95.2,40.8 96,40 96,39.2 L 96,13.6 C 96,12.8 95.2,12 94.4,12 L 72,12 z"
   id="rect3011-9-5-7-8-5"
   inkscape:connector-curvature="0"
   sodipodi:nodetypes="ccccccc" /><path
   style="fill:url(#linearGradient4131);fill-opacity:1;stroke:none"
   d="m 72.8,40 20,0 2.4,-2.4 0,-22.4 -2.4,-2.4 -20,0 z"
   id="rect3011-17-6-7-7"
   inkscape:connector-curvature="0"
   sodipodi:nodetypes="ccccccc" /><text
   xml:space="preserve"
   style="font-size:16.84719276px;font-style:normal;font-weight:normal;line-height:125%;letter-spacing:0px;word-spacing:0px;fill:#ffffff;fill-opacity:0.68907566;stroke:none;font-family:Sans"
   x="79.199997"
   y="-19.792553"
   id="text3843-0-1-1-4-1"
   sodipodi:linespacing="125%"
   transform="scale(1,-1)"><tspan
     sodipodi:role="line"
     id="tspan3845-1-1-8-2-1"
     x="79.199997"
     y="-19.792553"
     style="font-style:oblique;font-variant:normal;font-weight:bold;font-stretch:normal;fill:#ffffff;fill-opacity:0.68907566;font-family:Verdana;-inkscape-font-specification:Verdana Bold Oblique">O</tspan></text>
<text
   xml:space="preserve"
   style="font-size:16.84719276px;font-style:normal;font-weight:normal;line-height:125%;letter-spacing:0px;word-spacing:0px;fill:#36598d;fill-opacity:1;stroke:none;font-family:Sans"
   x="78.400002"
   y="-20.592552"
   id="text3843-5-9-7-5"
   sodipodi:linespacing="125%"
   transform="scale(1,-1)"><tspan
     sodipodi:role="line"
     id="tspan3845-2-2-7-2"
     x="78.400002"
     y="-20.592552"
     style="font-style:oblique;font-variant:normal;font-weight:bold;font-stretch:normal;fill:#36598d;fill-opacity:1;font-family:Verdana;-inkscape-font-specification:Verdana Bold Oblique">O</tspan></text>
<path
   style="fill:#552200;fill-opacity:0.5;stroke:none"
   d="m 72,42.4 c 0,0.8 0.8,1.6 1.6,1.6 l 3.2,0 0,-0.8 -3.2,0 -0.8,-0.8 0,-0.8 0.8,-0.8 3.2,0 0,-28.8 -4.8,0 z"
   id="rect3956-7-7-9-7"
   inkscape:connector-curvature="0"
   sodipodi:nodetypes="cccccccccccc" /></g></svg>