<?xml version="1.0" encoding="utf-8"?>
<!-- Generator: Adobe Illustrator 15.1.0, SVG Export Plug-In . SVG Version: 6.00 Build 0)  -->
<!DOCTYPE svg PUBLIC "-//W3C//DTD SVG 1.1//EN" "http://www.w3.org/Graphics/SVG/1.1/DTD/svg11.dtd">
<svg version="1.1" xmlns="http://www.w3.org/2000/svg" xmlns:xlink="http://www.w3.org/1999/xlink" x="0px" y="0px" width="125px"
	 height="50px" viewBox="0 0 125 50" enable-background="new 0 0 125 50" xml:space="preserve">
<g id="Construction" display="none">
	<g display="inline">
		<linearGradient id="SVGID_1_" gradientUnits="userSpaceOnUse" x1="118" y1="67" x2="118" y2="55">
			<stop  offset="0" style="stop-color:#000000"/>
			<stop  offset="0.1395" style="stop-color:#040404"/>
			<stop  offset="0.282" style="stop-color:#101010"/>
			<stop  offset="0.4258" style="stop-color:#252525"/>
			<stop  offset="0.5704" style="stop-color:#414141"/>
			<stop  offset="0.7152" style="stop-color:#666666"/>
			<stop  offset="0.741" style="stop-color:#505050"/>
			<stop  offset="0.782" style="stop-color:#333333"/>
			<stop  offset="0.8259" style="stop-color:#1C1C1C"/>
			<stop  offset="0.8734" style="stop-color:#0C0C0C"/>
			<stop  offset="0.9271" style="stop-color:#030303"/>
			<stop  offset="1" style="stop-color:#000000"/>
		</linearGradient>
		<polygon fill="url(#SVGID_1_)" points="110,55 110,62 110,67 111,67 111,64 123,64 125,62 126,61 125.001,60.001 123,58 111,58 
			111,55 		"/>
		<linearGradient id="SVGID_2_" gradientUnits="userSpaceOnUse" x1="93" y1="64" x2="93" y2="58">
			<stop  offset="0" style="stop-color:#8B2500"/>
			<stop  offset="0.1307" style="stop-color:#8F2803"/>
			<stop  offset="0.2642" style="stop-color:#9B310D"/>
			<stop  offset="0.3989" style="stop-color:#B0401D"/>
			<stop  offset="0.5346" style="stop-color:#CC5534"/>
			<stop  offset="0.6698" style="stop-color:#F17051"/>
			<stop  offset="0.7152" style="stop-color:#FF7A5C"/>
			<stop  offset="0.7162" style="stop-color:#FE795C"/>
			<stop  offset="0.7534" style="stop-color:#DB5F4D"/>
			<stop  offset="0.7925" style="stop-color:#BE4A41"/>
			<stop  offset="0.8343" style="stop-color:#A73A38"/>
			<stop  offset="0.8795" style="stop-color:#972E31"/>
			<stop  offset="0.9306" style="stop-color:#8E272D"/>
			<stop  offset="1" style="stop-color:#8B252C"/>
		</linearGradient>
		<polygon fill="url(#SVGID_2_)" points="106,64 104,63 81,63 76,61 81,59 104,59 106,58 110,58 110,64 		"/>
		<linearGradient id="SVGID_3_" gradientUnits="userSpaceOnUse" x1="108.5" y1="65" x2="108.5" y2="57">
			<stop  offset="0" style="stop-color:#8B2500"/>
			<stop  offset="0.1307" style="stop-color:#8F2803"/>
			<stop  offset="0.2642" style="stop-color:#9B310D"/>
			<stop  offset="0.3989" style="stop-color:#B0401D"/>
			<stop  offset="0.5346" style="stop-color:#CC5534"/>
			<stop  offset="0.6698" style="stop-color:#F17051"/>
			<stop  offset="0.7152" style="stop-color:#FF7A5C"/>
			<stop  offset="0.7162" style="stop-color:#FE795C"/>
			<stop  offset="0.7534" style="stop-color:#DB5F4D"/>
			<stop  offset="0.7925" style="stop-color:#BE4A41"/>
			<stop  offset="0.8343" style="stop-color:#A73A38"/>
			<stop  offset="0.8795" style="stop-color:#972E31"/>
			<stop  offset="0.9306" style="stop-color:#8E272D"/>
			<stop  offset="1" style="stop-color:#8B252C"/>
		</linearGradient>
		<rect x="108" y="57" fill="url(#SVGID_3_)" width="1" height="8"/>
		<linearGradient id="SVGID_4_" gradientUnits="userSpaceOnUse" x1="106.5" y1="65" x2="106.5" y2="57">
			<stop  offset="0" style="stop-color:#8B2500"/>
			<stop  offset="0.1307" style="stop-color:#8F2803"/>
			<stop  offset="0.2642" style="stop-color:#9B310D"/>
			<stop  offset="0.3989" style="stop-color:#B0401D"/>
			<stop  offset="0.5346" style="stop-color:#CC5534"/>
			<stop  offset="0.6698" style="stop-color:#F17051"/>
			<stop  offset="0.7152" style="stop-color:#FF7A5C"/>
			<stop  offset="0.7162" style="stop-color:#FE795C"/>
			<stop  offset="0.7534" style="stop-color:#DB5F4D"/>
			<stop  offset="0.7925" style="stop-color:#BE4A41"/>
			<stop  offset="0.8343" style="stop-color:#A73A38"/>
			<stop  offset="0.8795" style="stop-color:#972E31"/>
			<stop  offset="0.9306" style="stop-color:#8E272D"/>
			<stop  offset="1" style="stop-color:#8B252C"/>
		</linearGradient>
		<rect x="106" y="57" fill="url(#SVGID_4_)" width="1" height="8"/>
		<linearGradient id="SVGID_5_" gradientUnits="userSpaceOnUse" x1="112.5" y1="74" x2="112.5" y2="60">
			<stop  offset="0" style="stop-color:#000000"/>
			<stop  offset="0.1395" style="stop-color:#040404"/>
			<stop  offset="0.282" style="stop-color:#101010"/>
			<stop  offset="0.4258" style="stop-color:#252525"/>
			<stop  offset="0.5704" style="stop-color:#414141"/>
			<stop  offset="0.7152" style="stop-color:#666666"/>
			<stop  offset="0.741" style="stop-color:#505050"/>
			<stop  offset="0.782" style="stop-color:#333333"/>
			<stop  offset="0.8259" style="stop-color:#1C1C1C"/>
			<stop  offset="0.8734" style="stop-color:#0C0C0C"/>
			<stop  offset="0.9271" style="stop-color:#030303"/>
			<stop  offset="1" style="stop-color:#000000"/>
		</linearGradient>
		<path fill="url(#SVGID_5_)" d="M124,60v2h2c2,0,2,1,2,3c0,1.25-2.821,2.582-4,3c-0.972,0.345-2.975,0.891-4,1c-1.74,0.186-7,0-7,0
			s-3.75-0.019-5,0c-1.274,0.02-5,0-9,1c-1,0.25-3,2-3,4h1c0-2,1.735-2.684,3-3c4-1,6.971-0.953,8-1c1.249-0.058,5,0,5,0
			s5.259,0.18,7,0c1.025-0.105,3.036-0.633,4-1c1.496-0.569,5-2.399,5-4c0-2,0-4-3-4c-0.354,0-1-1-1-1"/>
		<linearGradient id="SVGID_6_" gradientUnits="userSpaceOnUse" x1="70" y1="86" x2="70" y2="74">
			<stop  offset="0" style="stop-color:#000000"/>
			<stop  offset="0.1395" style="stop-color:#040404"/>
			<stop  offset="0.282" style="stop-color:#101010"/>
			<stop  offset="0.4258" style="stop-color:#252525"/>
			<stop  offset="0.5704" style="stop-color:#414141"/>
			<stop  offset="0.7152" style="stop-color:#666666"/>
			<stop  offset="0.741" style="stop-color:#505050"/>
			<stop  offset="0.782" style="stop-color:#333333"/>
			<stop  offset="0.8259" style="stop-color:#1C1C1C"/>
			<stop  offset="0.8734" style="stop-color:#0C0C0C"/>
			<stop  offset="0.9271" style="stop-color:#030303"/>
			<stop  offset="1" style="stop-color:#000000"/>
		</linearGradient>
		<polygon fill="url(#SVGID_6_)" points="62,74 62,81 62,86 63,86 63,82 75,82 77,81 78,80 77.001,79.001 75,78 63,78 63,74 		"/>
		<linearGradient id="SVGID_7_" gradientUnits="userSpaceOnUse" x1="45" y1="82" x2="45" y2="78">
			<stop  offset="0" style="stop-color:#8B2500"/>
			<stop  offset="0.1307" style="stop-color:#8F2803"/>
			<stop  offset="0.2642" style="stop-color:#9B310D"/>
			<stop  offset="0.3989" style="stop-color:#B0401D"/>
			<stop  offset="0.5346" style="stop-color:#CC5534"/>
			<stop  offset="0.6698" style="stop-color:#F17051"/>
			<stop  offset="0.7152" style="stop-color:#FF7A5C"/>
			<stop  offset="0.7162" style="stop-color:#FE795C"/>
			<stop  offset="0.7534" style="stop-color:#DB5F4D"/>
			<stop  offset="0.7925" style="stop-color:#BE4A41"/>
			<stop  offset="0.8343" style="stop-color:#A73A38"/>
			<stop  offset="0.8795" style="stop-color:#972E31"/>
			<stop  offset="0.9306" style="stop-color:#8E272D"/>
			<stop  offset="1" style="stop-color:#8B252C"/>
		</linearGradient>
		<polygon fill="url(#SVGID_7_)" points="38,82 35,81 33,81 28,80 33,79 35,79 38,78 62,78 62,82 		"/>
		<linearGradient id="SVGID_8_" gradientUnits="userSpaceOnUse" x1="50.5" y1="62" x2="50.5" y2="54">
			<stop  offset="0" style="stop-color:#8B2500"/>
			<stop  offset="0.1307" style="stop-color:#8F2803"/>
			<stop  offset="0.2642" style="stop-color:#9B310D"/>
			<stop  offset="0.3989" style="stop-color:#B0401D"/>
			<stop  offset="0.5346" style="stop-color:#CC5534"/>
			<stop  offset="0.6698" style="stop-color:#F17051"/>
			<stop  offset="0.7152" style="stop-color:#FF7A5C"/>
			<stop  offset="0.7162" style="stop-color:#FE795C"/>
			<stop  offset="0.7534" style="stop-color:#DB5F4D"/>
			<stop  offset="0.7925" style="stop-color:#BE4A41"/>
			<stop  offset="0.8343" style="stop-color:#A73A38"/>
			<stop  offset="0.8795" style="stop-color:#972E31"/>
			<stop  offset="0.9306" style="stop-color:#8E272D"/>
			<stop  offset="1" style="stop-color:#8B252C"/>
		</linearGradient>
		<rect x="50" y="54" fill="url(#SVGID_8_)" width="1" height="8"/>
		<linearGradient id="SVGID_9_" gradientUnits="userSpaceOnUse" x1="44.5" y1="64" x2="44.5" y2="56">
			<stop  offset="0" style="stop-color:#8B2500"/>
			<stop  offset="0.1307" style="stop-color:#8F2803"/>
			<stop  offset="0.2642" style="stop-color:#9B310D"/>
			<stop  offset="0.3989" style="stop-color:#B0401D"/>
			<stop  offset="0.5346" style="stop-color:#CC5534"/>
			<stop  offset="0.6698" style="stop-color:#F17051"/>
			<stop  offset="0.7152" style="stop-color:#FF7A5C"/>
			<stop  offset="0.7162" style="stop-color:#FE795C"/>
			<stop  offset="0.7534" style="stop-color:#DB5F4D"/>
			<stop  offset="0.7925" style="stop-color:#BE4A41"/>
			<stop  offset="0.8343" style="stop-color:#A73A38"/>
			<stop  offset="0.8795" style="stop-color:#972E31"/>
			<stop  offset="0.9306" style="stop-color:#8E272D"/>
			<stop  offset="1" style="stop-color:#8B252C"/>
		</linearGradient>
		<rect x="44" y="56" fill="url(#SVGID_9_)" width="1" height="8"/>
		<linearGradient id="SVGID_10_" gradientUnits="userSpaceOnUse" x1="64.5" y1="93" x2="64.5" y2="79">
			<stop  offset="0" style="stop-color:#000000"/>
			<stop  offset="0.1395" style="stop-color:#040404"/>
			<stop  offset="0.282" style="stop-color:#101010"/>
			<stop  offset="0.4258" style="stop-color:#252525"/>
			<stop  offset="0.5704" style="stop-color:#414141"/>
			<stop  offset="0.7152" style="stop-color:#666666"/>
			<stop  offset="0.741" style="stop-color:#505050"/>
			<stop  offset="0.782" style="stop-color:#333333"/>
			<stop  offset="0.8259" style="stop-color:#1C1C1C"/>
			<stop  offset="0.8734" style="stop-color:#0C0C0C"/>
			<stop  offset="0.9271" style="stop-color:#030303"/>
			<stop  offset="1" style="stop-color:#000000"/>
		</linearGradient>
		<path fill="url(#SVGID_10_)" d="M76,79v2h2c2,0,2,1,2,3c0,1.25-2.821,2.582-4,3c-0.972,0.345-2.975,0.891-4,1c-1.74,0.186-7,0-7,0
			s-3.75-0.019-5,0c-1.274,0.02-5,0-9,1c-1,0.25-3,2-3,4h1c0-2,1.735-2.684,3-3c4-1,6.971-0.953,8-1c1.249-0.058,5,0,5,0
			s5.259,0.18,7,0c1.025-0.105,3.036-0.633,4-1c1.496-0.569,5-2.399,5-4c0-2,0-4-3-4c-0.354,0-1-1-1-1"/>
		<linearGradient id="SVGID_11_" gradientUnits="userSpaceOnUse" x1="42" y1="127" x2="42" y2="115">
			<stop  offset="0" style="stop-color:#000000"/>
			<stop  offset="0.1395" style="stop-color:#040404"/>
			<stop  offset="0.282" style="stop-color:#101010"/>
			<stop  offset="0.4258" style="stop-color:#252525"/>
			<stop  offset="0.5704" style="stop-color:#414141"/>
			<stop  offset="0.7152" style="stop-color:#666666"/>
			<stop  offset="0.741" style="stop-color:#505050"/>
			<stop  offset="0.782" style="stop-color:#333333"/>
			<stop  offset="0.8259" style="stop-color:#1C1C1C"/>
			<stop  offset="0.8734" style="stop-color:#0C0C0C"/>
			<stop  offset="0.9271" style="stop-color:#030303"/>
			<stop  offset="1" style="stop-color:#000000"/>
		</linearGradient>
		<polygon fill="url(#SVGID_11_)" points="34,115 34,122 34,127 35,127 35,123 47,123 49,122 50,121 49.001,120.001 47,119 35,119 
			35,115 		"/>
		<linearGradient id="SVGID_12_" gradientUnits="userSpaceOnUse" x1="63" y1="106.5938" x2="63" y2="101.4375">
			<stop  offset="0" style="stop-color:#8B2500"/>
			<stop  offset="0.1307" style="stop-color:#8F2803"/>
			<stop  offset="0.2642" style="stop-color:#9B310D"/>
			<stop  offset="0.3989" style="stop-color:#B0401D"/>
			<stop  offset="0.5346" style="stop-color:#CC5534"/>
			<stop  offset="0.6698" style="stop-color:#F17051"/>
			<stop  offset="0.7152" style="stop-color:#FF7A5C"/>
			<stop  offset="0.7162" style="stop-color:#FE795C"/>
			<stop  offset="0.7534" style="stop-color:#DB5F4D"/>
			<stop  offset="0.7925" style="stop-color:#BE4A41"/>
			<stop  offset="0.8343" style="stop-color:#A73A38"/>
			<stop  offset="0.8795" style="stop-color:#972E31"/>
			<stop  offset="0.9306" style="stop-color:#8E272D"/>
			<stop  offset="1" style="stop-color:#8B252C"/>
		</linearGradient>
		<path fill="url(#SVGID_12_)" d="M45,106l-4-1v-1v-1l4-1c0,0,9.75,0,13,0c3,0,7.83-0.563,10.094-0.563S78,102,80,102c1,0,2,0,2,0
			l2,1l1,1l-1,1l-2,1c0,0-1,0-2,0c-2,0-9.768,0.594-12.031,0.594S61,106,58,106C54.75,106,45,106,45,106z"/>
		<linearGradient id="SVGID_13_" gradientUnits="userSpaceOnUse" x1="72.5" y1="117" x2="72.5" y2="103">
			<stop  offset="0" style="stop-color:#000000"/>
			<stop  offset="0.1395" style="stop-color:#040404"/>
			<stop  offset="0.282" style="stop-color:#101010"/>
			<stop  offset="0.4258" style="stop-color:#252525"/>
			<stop  offset="0.5704" style="stop-color:#414141"/>
			<stop  offset="0.7152" style="stop-color:#666666"/>
			<stop  offset="0.741" style="stop-color:#505050"/>
			<stop  offset="0.782" style="stop-color:#333333"/>
			<stop  offset="0.8259" style="stop-color:#1C1C1C"/>
			<stop  offset="0.8734" style="stop-color:#0C0C0C"/>
			<stop  offset="0.9271" style="stop-color:#030303"/>
			<stop  offset="1" style="stop-color:#000000"/>
		</linearGradient>
		<path fill="url(#SVGID_13_)" d="M84,103v2h2c2,0,2,1,2,3c0,1.25-2.821,2.582-4,3c-0.972,0.345-2.975,0.891-4,1
			c-1.74,0.186-7,0-7,0s-3.75-0.019-5,0c-1.274,0.02-5,0-9,1c-1,0.25-3,2-3,4h1c0-2,1.735-2.684,3-3c4-1,6.971-0.953,8-1
			c1.249-0.058,5,0,5,0s5.259,0.18,7,0c1.025-0.105,3.036-0.633,4-1c1.496-0.569,5-2.399,5-4c0-2,0-4-3-4c-0.354,0-1-1-1-1"/>
		<polygon fill="#666666" points="36,104 41,105 41,103 		"/>
		<linearGradient id="SVGID_14_" gradientUnits="userSpaceOnUse" x1="45.5" y1="107" x2="45.5" y2="101">
			<stop  offset="0" style="stop-color:#8B2500"/>
			<stop  offset="0.1307" style="stop-color:#8F2803"/>
			<stop  offset="0.2642" style="stop-color:#9B310D"/>
			<stop  offset="0.3989" style="stop-color:#B0401D"/>
			<stop  offset="0.5346" style="stop-color:#CC5534"/>
			<stop  offset="0.6698" style="stop-color:#F17051"/>
			<stop  offset="0.7152" style="stop-color:#FF7A5C"/>
			<stop  offset="0.7162" style="stop-color:#FE795C"/>
			<stop  offset="0.7534" style="stop-color:#DB5F4D"/>
			<stop  offset="0.7925" style="stop-color:#BE4A41"/>
			<stop  offset="0.8343" style="stop-color:#A73A38"/>
			<stop  offset="0.8795" style="stop-color:#972E31"/>
			<stop  offset="0.9306" style="stop-color:#8E272D"/>
			<stop  offset="1" style="stop-color:#8B252C"/>
		</linearGradient>
		<rect x="45" y="101" fill="url(#SVGID_14_)" width="1" height="6"/>
	</g>
	<g display="inline">
		
			<linearGradient id="SVGID_15_" gradientUnits="userSpaceOnUse" x1="178.2871" y1="185.9287" x2="178.2871" y2="173.8555" gradientTransform="matrix(0.7071 -0.7071 0.7071 0.7071 8.8855 20.7189)">
			<stop  offset="0" style="stop-color:#000000"/>
			<stop  offset="0.1395" style="stop-color:#040404"/>
			<stop  offset="0.282" style="stop-color:#101010"/>
			<stop  offset="0.4258" style="stop-color:#252525"/>
			<stop  offset="0.5704" style="stop-color:#414141"/>
			<stop  offset="0.7152" style="stop-color:#666666"/>
			<stop  offset="0.741" style="stop-color:#505050"/>
			<stop  offset="0.782" style="stop-color:#333333"/>
			<stop  offset="0.8259" style="stop-color:#1C1C1C"/>
			<stop  offset="0.8734" style="stop-color:#0C0C0C"/>
			<stop  offset="0.9271" style="stop-color:#030303"/>
			<stop  offset="1" style="stop-color:#000000"/>
		</linearGradient>
		<polygon fill="url(#SVGID_15_)" points="252.088,23.485 257.037,28.436 260.574,31.971 261.281,31.264 259.337,29.143 268,20.657 
			268,17.829 268,16 266.232,16 263.402,16 254.917,24.692 252.795,22.675 		"/>
		
			<linearGradient id="SVGID_16_" gradientUnits="userSpaceOnUse" x1="153.0146" y1="182.9287" x2="153.0146" y2="176.9287" gradientTransform="matrix(0.7071 -0.7071 0.7071 0.7071 8.8855 20.7189)">
			<stop  offset="0" style="stop-color:#6E272D"/>
			<stop  offset="0.1167" style="stop-color:#72292E"/>
			<stop  offset="0.2359" style="stop-color:#7E2E30"/>
			<stop  offset="0.3563" style="stop-color:#933633"/>
			<stop  offset="0.4774" style="stop-color:#AF4138"/>
			<stop  offset="0.598" style="stop-color:#D4503E"/>
			<stop  offset="0.7152" style="stop-color:#FF6145"/>
			<stop  offset="0.7272" style="stop-color:#F15B42"/>
			<stop  offset="0.7629" style="stop-color:#CE4B3C"/>
			<stop  offset="0.8008" style="stop-color:#B13D36"/>
			<stop  offset="0.8409" style="stop-color:#9A3331"/>
			<stop  offset="0.8843" style="stop-color:#8A2C2E"/>
			<stop  offset="0.9334" style="stop-color:#81272D"/>
			<stop  offset="1" style="stop-color:#7E262C"/>
		</linearGradient>
		<polygon fill="url(#SVGID_16_)" points="255.624,32.678 253.502,33.385 237.239,49.648 232.289,51.77 234.41,46.82 
			250.674,30.557 251.381,28.436 254.209,25.607 258.452,29.85 		"/>
		
			<linearGradient id="SVGID_17_" gradientUnits="userSpaceOnUse" x1="168.5137" y1="183.9287" x2="168.5137" y2="175.9287" gradientTransform="matrix(0.7071 -0.7071 0.7071 0.7071 8.8855 20.7189)">
			<stop  offset="0" style="stop-color:#C81F27"/>
			<stop  offset="0.7152" style="stop-color:#ED1C24"/>
			<stop  offset="0.7316" style="stop-color:#E81C24"/>
			<stop  offset="0.8046" style="stop-color:#D81E26"/>
			<stop  offset="0.8874" style="stop-color:#CF1F27"/>
			<stop  offset="1" style="stop-color:#CC1F27"/>
		</linearGradient>
		<polygon fill="url(#SVGID_17_)" points="258.452,31.264 257.745,31.971 252.088,26.314 252.795,25.607 		"/>
		
			<linearGradient id="SVGID_18_" gradientUnits="userSpaceOnUse" x1="166.5146" y1="183.9287" x2="166.5146" y2="175.9287" gradientTransform="matrix(0.7071 -0.7071 0.7071 0.7071 8.8855 20.7189)">
			<stop  offset="0" style="stop-color:#C81F27"/>
			<stop  offset="0.7152" style="stop-color:#ED1C24"/>
			<stop  offset="0.7316" style="stop-color:#E81C24"/>
			<stop  offset="0.8046" style="stop-color:#D81E26"/>
			<stop  offset="0.8874" style="stop-color:#CF1F27"/>
			<stop  offset="1" style="stop-color:#CC1F27"/>
		</linearGradient>
		<polygon fill="url(#SVGID_18_)" points="257.038,32.678 256.331,33.385 250.674,27.729 251.381,27.021 		"/>
		
			<linearGradient id="SVGID_19_" gradientUnits="userSpaceOnUse" x1="172.5234" y1="192.9287" x2="172.5234" y2="178.9287" gradientTransform="matrix(0.7071 -0.7071 0.7071 0.7071 8.8855 20.7189)">
			<stop  offset="0" style="stop-color:#000000"/>
			<stop  offset="0.1395" style="stop-color:#040404"/>
			<stop  offset="0.282" style="stop-color:#101010"/>
			<stop  offset="0.4258" style="stop-color:#252525"/>
			<stop  offset="0.5704" style="stop-color:#414141"/>
			<stop  offset="0.7152" style="stop-color:#666666"/>
			<stop  offset="0.741" style="stop-color:#505050"/>
			<stop  offset="0.782" style="stop-color:#333333"/>
			<stop  offset="0.8259" style="stop-color:#1C1C1C"/>
			<stop  offset="0.8734" style="stop-color:#0C0C0C"/>
			<stop  offset="0.9271" style="stop-color:#030303"/>
			<stop  offset="1" style="stop-color:#000000"/>
		</linearGradient>
		<path fill="url(#SVGID_19_)" d="M265.523,17.122l1.414,1.414l1.414-1.414c0,0,3.016-0.029,3.535,0.707
			c0.723,1.021-0.168,3.821-0.707,4.95c-0.443,0.931-1.473,2.733-2.121,3.536c-1.099,1.361-4.949,4.949-4.949,4.949
			s-2.665,2.639-3.535,3.535c-0.889,0.915-3.536,3.536-5.657,7.071c-0.53,0.884-0.708,3.536,0.707,4.95l0.707-0.707
			c-1.414-1.414-0.671-3.125,0-4.243c2.121-3.535,4.255-5.603,4.95-6.364c0.842-0.924,3.535-3.535,3.535-3.535
			s3.846-3.592,4.949-4.949c0.65-0.801,1.699-2.595,2.121-3.536c0.656-1.46,1.57-5.015,0.707-6.364
			c-0.602-0.942-4.242-1.414-4.242-1.414l-2.121,0.707"/>
	</g>
</g>
<g id="Frame">
	<rect x="0.5" y="0.5" fill="#FFFFFF" stroke="#000000" stroke-miterlimit="10" width="17" height="17"/>
	<rect x="17.5" y="0.5" fill="#FFFFFF" stroke="#000000" stroke-miterlimit="10" width="25" height="25"/>
	<rect x="75.5" y="0.5" fill="#FFFFFF" stroke="#000000" stroke-miterlimit="10" width="49" height="49"/>
	<rect x="42.5" y="0.5" fill="#FFFFFF" stroke="#000000" stroke-miterlimit="10" width="33" height="33"/>
</g>
<g id="Icon">
	
		<linearGradient id="SVGID_20_" gradientUnits="userSpaceOnUse" x1="36.5752" y1="120.5498" x2="36.5752" y2="115.3818" gradientTransform="matrix(0.7071 -0.7071 0.7071 0.7071 -11.0227 -32.3451)">
		<stop  offset="0" style="stop-color:#8B2500"/>
		<stop  offset="0.1307" style="stop-color:#8F2803"/>
		<stop  offset="0.2642" style="stop-color:#9B310D"/>
		<stop  offset="0.3989" style="stop-color:#B0401D"/>
		<stop  offset="0.5346" style="stop-color:#CC5534"/>
		<stop  offset="0.6698" style="stop-color:#F17051"/>
		<stop  offset="0.7152" style="stop-color:#FF7A5C"/>
		<stop  offset="0.7162" style="stop-color:#FE795C"/>
		<stop  offset="0.7534" style="stop-color:#DB5F4D"/>
		<stop  offset="0.7925" style="stop-color:#BE4A41"/>
		<stop  offset="0.8343" style="stop-color:#A73A38"/>
		<stop  offset="0.8795" style="stop-color:#972E31"/>
		<stop  offset="0.9306" style="stop-color:#8E272D"/>
		<stop  offset="1" style="stop-color:#8B252C"/>
	</linearGradient>
	<path fill="url(#SVGID_20_)" d="M87.004,39.253l-3.535,2.122l-0.707-0.707l-0.707-0.707l2.121-3.536c0,0,6.895-6.895,9.192-9.192
		c2.122-2.122,5.14-5.935,6.739-7.535c1.602-1.601,7.402-6.607,8.817-8.021c0.707-0.707,1.414-1.191,1.414-1.191L112.46,10H114
		v0.969l-0.771,2.122c0,0-0.738,0.707-1.445,1.414c-1.414,1.414-6.503,7.327-8.103,8.927c-1.602,1.601-5.355,4.508-7.477,6.629
		C93.906,32.359,87.004,39.253,87.004,39.253z"/>
	
		<linearGradient id="SVGID_21_" gradientUnits="userSpaceOnUse" x1="46.1885" y1="130.9453" x2="46.1885" y2="116.9453" gradientTransform="matrix(0.7071 -0.7071 0.7071 0.7071 -11.0227 -32.3451)">
		<stop  offset="0" style="stop-color:#000000"/>
		<stop  offset="0.1395" style="stop-color:#040404"/>
		<stop  offset="0.282" style="stop-color:#101010"/>
		<stop  offset="0.4258" style="stop-color:#252525"/>
		<stop  offset="0.5704" style="stop-color:#414141"/>
		<stop  offset="0.7152" style="stop-color:#666666"/>
		<stop  offset="0.741" style="stop-color:#505050"/>
		<stop  offset="0.782" style="stop-color:#333333"/>
		<stop  offset="0.8259" style="stop-color:#1C1C1C"/>
		<stop  offset="0.8734" style="stop-color:#0C0C0C"/>
		<stop  offset="0.9271" style="stop-color:#030303"/>
		<stop  offset="1" style="stop-color:#000000"/>
	</linearGradient>
	<path fill="url(#SVGID_21_)" d="M112.46,9.555l1.415,1.414l1.414-1.414c1.414-1.414,2.121-0.707,3.535,0.707
		c0.884,0.884-0.17,3.821-0.707,4.95c-0.443,0.931-1.474,2.733-2.121,3.536c-1.1,1.362-4.95,4.95-4.95,4.95
		s-2.665,2.639-3.536,3.536c-0.887,0.915-3.535,3.535-5.656,7.07c-0.53,0.885-0.707,3.536,0.707,4.95l0.707-0.707
		c-1.414-1.414-0.67-3.124,0-4.243c2.121-3.535,4.256-5.603,4.949-6.363c0.844-0.924,3.536-3.536,3.536-3.536s3.846-3.591,4.95-4.95
		c0.65-0.8,1.699-2.594,2.121-3.536c0.655-1.46,1.839-5.232,0.707-6.364c-1.414-1.414-2.828-2.829-4.949-0.707
		c-0.25,0.25-1.415,0-1.415,0"/>
	<polygon fill="#666666" points="79.227,44.203 83.469,41.375 82.055,39.961 	"/>
	
		<linearGradient id="SVGID_22_" gradientUnits="userSpaceOnUse" x1="19.188" y1="120.9453" x2="19.188" y2="114.9443" gradientTransform="matrix(0.7071 -0.7071 0.7071 0.7071 -11.0227 -32.3451)">
		<stop  offset="0" style="stop-color:#8B2500"/>
		<stop  offset="0.1307" style="stop-color:#8F2803"/>
		<stop  offset="0.2642" style="stop-color:#9B310D"/>
		<stop  offset="0.3989" style="stop-color:#B0401D"/>
		<stop  offset="0.5346" style="stop-color:#CC5534"/>
		<stop  offset="0.6698" style="stop-color:#F17051"/>
		<stop  offset="0.7152" style="stop-color:#FF7A5C"/>
		<stop  offset="0.7162" style="stop-color:#FE795C"/>
		<stop  offset="0.7534" style="stop-color:#DB5F4D"/>
		<stop  offset="0.7925" style="stop-color:#BE4A41"/>
		<stop  offset="0.8343" style="stop-color:#A73A38"/>
		<stop  offset="0.8795" style="stop-color:#972E31"/>
		<stop  offset="0.9306" style="stop-color:#8E272D"/>
		<stop  offset="1" style="stop-color:#8B252C"/>
	</linearGradient>
	<polygon fill="url(#SVGID_22_)" points="88.418,39.253 87.711,39.961 83.469,35.718 84.176,35.01 	"/>
	
		<linearGradient id="SVGID_23_" gradientUnits="userSpaceOnUse" x1="-15.5825" y1="43.6064" x2="-15.5825" y2="41.627" gradientTransform="matrix(0.7071 -0.7071 0.7071 0.7071 -11.0227 -32.3451)">
		<stop  offset="0" style="stop-color:#8B2500"/>
		<stop  offset="0.1307" style="stop-color:#8F2803"/>
		<stop  offset="0.2642" style="stop-color:#9B310D"/>
		<stop  offset="0.3989" style="stop-color:#B0401D"/>
		<stop  offset="0.5346" style="stop-color:#CC5534"/>
		<stop  offset="0.6698" style="stop-color:#F17051"/>
		<stop  offset="0.7152" style="stop-color:#FF7A5C"/>
		<stop  offset="0.7162" style="stop-color:#FE795C"/>
		<stop  offset="0.7534" style="stop-color:#DB5F4D"/>
		<stop  offset="0.7925" style="stop-color:#BE4A41"/>
		<stop  offset="0.8343" style="stop-color:#A73A38"/>
		<stop  offset="0.8795" style="stop-color:#972E31"/>
		<stop  offset="0.9306" style="stop-color:#8E272D"/>
		<stop  offset="1" style="stop-color:#8B252C"/>
	</linearGradient>
	<path fill="url(#SVGID_23_)" d="M3.952,14.191l-1.357,0.833l-0.272-0.277l-0.271-0.278l0.815-1.387c0,0,2.647-2.706,3.529-3.607
		C7.211,8.642,8.37,7.146,8.983,6.517c0.615-0.628,2.842-2.592,3.386-3.147c0.271-0.277,0.543-0.323,0.543-0.323L13.727,3H14v0.092
		l-0.137,0.833c0,0-0.204,0.277-0.476,0.555c-0.542,0.555-2.457,2.875-3.071,3.503C9.701,8.611,8.28,9.751,7.465,10.584
		C6.583,11.486,3.952,14.191,3.952,14.191z"/>
	
		<linearGradient id="SVGID_24_" gradientUnits="userSpaceOnUse" x1="-11.437" y1="49.2021" x2="-11.437" y2="42.1631" gradientTransform="matrix(0.7071 -0.7071 0.7071 0.7071 -11.0227 -32.3451)">
		<stop  offset="0" style="stop-color:#000000"/>
		<stop  offset="0.1395" style="stop-color:#040404"/>
		<stop  offset="0.282" style="stop-color:#101010"/>
		<stop  offset="0.4258" style="stop-color:#252525"/>
		<stop  offset="0.5704" style="stop-color:#414141"/>
		<stop  offset="0.7152" style="stop-color:#666666"/>
		<stop  offset="0.741" style="stop-color:#505050"/>
		<stop  offset="0.782" style="stop-color:#333333"/>
		<stop  offset="0.8259" style="stop-color:#1C1C1C"/>
		<stop  offset="0.8734" style="stop-color:#0C0C0C"/>
		<stop  offset="0.9271" style="stop-color:#030303"/>
		<stop  offset="1" style="stop-color:#000000"/>
	</linearGradient>
	<path fill="url(#SVGID_24_)" d="M13.727,2.537l0.543,0.555l0.542-0.555c0.543-0.555,0.815-0.277,1.357,0.278
		c0.34,0.347,0.315,1.663,0.109,2.106c-0.17,0.365-0.608,1.07-0.856,1.385C15,6.84,13.465,8.265,13.465,8.265
		s-1.043,1.056-1.378,1.408c-0.341,0.359-0.891,0.939-1.706,2.327c-0.204,0.347-0.206,2.468,1.03,2.801l0.043-0.333
		c-0.946-0.693-0.765-2.135-0.507-2.574c0.814-1.387,1.232-1.555,1.498-1.854c0.324-0.362,1.358-1.368,1.358-1.368
		s1.473-1.487,1.897-2.021c0.25-0.314,0.759-0.915,0.921-1.284c0.252-0.573,0.254-2.387-0.181-2.832
		c-0.543-0.555-1.086-1.11-1.901-0.277c-0.096,0.098-0.543,0-0.543,0"/>
	<polygon fill="#666666" points="1.055,16.044 2.595,15.023 2.051,14.468 	"/>
	
		<linearGradient id="SVGID_25_" gradientUnits="userSpaceOnUse" x1="-22.1162" y1="32.0283" x2="-22.1162" y2="29.6963" gradientTransform="matrix(0.7071 -0.7071 0.959 0.959 -10.3778 -31.7012)">
		<stop  offset="0" style="stop-color:#8B2500"/>
		<stop  offset="0.1307" style="stop-color:#8F2803"/>
		<stop  offset="0.2642" style="stop-color:#9B310D"/>
		<stop  offset="0.3989" style="stop-color:#B0401D"/>
		<stop  offset="0.5346" style="stop-color:#CC5534"/>
		<stop  offset="0.6698" style="stop-color:#F17051"/>
		<stop  offset="0.7152" style="stop-color:#FF7A5C"/>
		<stop  offset="0.7162" style="stop-color:#FE795C"/>
		<stop  offset="0.7534" style="stop-color:#DB5F4D"/>
		<stop  offset="0.7925" style="stop-color:#BE4A41"/>
		<stop  offset="0.8343" style="stop-color:#A73A38"/>
		<stop  offset="0.8795" style="stop-color:#972E31"/>
		<stop  offset="0.9306" style="stop-color:#8E272D"/>
		<stop  offset="1" style="stop-color:#8B252C"/>
	</linearGradient>
	<polygon fill="url(#SVGID_25_)" points="4.821,14.524 4.549,14.801 2.34,12.544 2.612,12.266 	"/>
	<rect x="1" y="1" fill="none" width="16" height="16"/>
	<rect x="76" y="1" fill="none" width="48" height="48"/>
</g>
</svg>
