<?xml version="1.0" encoding="utf-8"?>
<!-- Generator: Adobe Illustrator 15.1.0, SVG Export Plug-In . SVG Version: 6.00 Build 0)  -->
<!DOCTYPE svg PUBLIC "-//W3C//DTD SVG 1.1//EN" "http://www.w3.org/Graphics/SVG/1.1/DTD/svg11.dtd">
<svg version="1.1" xmlns="http://www.w3.org/2000/svg" xmlns:xlink="http://www.w3.org/1999/xlink" x="0px" y="0px" width="125px"
	 height="50px" viewBox="0 0 125 50" enable-background="new 0 0 125 50" xml:space="preserve">
<g id="Frame">
	<rect x="0.5" y="0.5" fill="#FFFFFF" stroke="#000000" stroke-miterlimit="10" width="17" height="17"/>
	<rect x="17.5" y="0.5" fill="#FFFFFF" stroke="#000000" stroke-miterlimit="10" width="25" height="25"/>
	<rect x="75.5" y="0.5" fill="#FFFFFF" stroke="#000000" stroke-miterlimit="10" width="49" height="49"/>
	<rect x="42.5" y="0.5" fill="#FFFFFF" stroke="#000000" stroke-miterlimit="10" width="33" height="33"/>
</g>
<g id="Icon">
	<rect x="6" y="8" fill="#88D4F2" width="2" height="6"/>
	<rect x="1" y="11" fill="#B3B3B3" width="1" height="1"/>
	<rect x="1" y="8" fill="#B3B3B3" width="1" height="1"/>
	<rect x="1" y="5" fill="#B3B3B3" width="1" height="1"/>
	<rect x="1" y="14" fill="#B3B3B3" width="1" height="1"/>
	<rect x="1" y="2" fill="#B3B3B3" width="1" height="1"/>
	<rect x="15" y="16" fill="#B3B3B3" width="1" height="1"/>
	<rect x="12" y="16" fill="#B3B3B3" width="1" height="1"/>
	<rect x="9" y="16" fill="#B3B3B3" width="1" height="1"/>
	<rect x="6" y="16" fill="#B3B3B3" width="1" height="1"/>
	<rect x="3" y="16" fill="#B3B3B3" width="1" height="1"/>
	<rect x="6" y="2" fill="#61C6EE" width="2" height="6"/>
	<rect x="8" y="8" fill="#61C6EE" width="2" height="6"/>
	<rect x="10" y="8" fill="#88D4F2" width="2" height="6"/>
	<rect x="12" y="8" fill="#9DDCF4" width="2" height="6"/>
	<rect x="14" y="8" fill="#61C6EE" width="2" height="6"/>
	<rect x="14" y="2" fill="#3EB9E9" width="2" height="6"/>
	<rect x="12" y="2" fill="#88D4F2" width="2" height="6"/>
	<rect x="10" y="2" fill="#61C6EE" width="2" height="6"/>
	<rect x="8" y="2" fill="#3EB9E9" width="2" height="6"/>
	<rect x="4" y="8" fill="#9DDCF4" width="2" height="6"/>
	<rect x="4" y="2" fill="#88D4F2" width="2" height="6"/>
	<rect x="3" y="2" fill="#4D4D4D" width="1" height="13"/>
	<rect x="4" y="14" fill="#4D4D4D" width="12" height="1"/>
	<rect x="77" y="3" fill="#B3B3B3" width="3" height="1"/>
	<rect x="81" y="45" fill="#B3B3B3" width="1" height="3"/>
	<rect x="82" y="3" fill="#9DDCF4" width="40" height="40"/>
	<rect x="86" y="27" fill="#3EB9E9" width="2" height="8"/>
	<rect x="84" y="27" fill="#61C6EE" width="2" height="8"/>
	<rect x="88" y="35" fill="#3EB9E9" width="2" height="8"/>
	<rect x="81" y="2" fill="#4D4D4D" width="1" height="42"/>
	<rect x="82" y="43" fill="#4D4D4D" width="41" height="1"/>
	<rect x="77" y="8" fill="#B3B3B3" width="3" height="1"/>
	<rect x="77" y="13" fill="#B3B3B3" width="3" height="1"/>
	<rect x="77" y="18" fill="#B3B3B3" width="3" height="1"/>
	<rect x="77" y="23" fill="#B3B3B3" width="3" height="1"/>
	<rect x="77" y="28" fill="#B3B3B3" width="3" height="1"/>
	<rect x="77" y="33" fill="#B3B3B3" width="3" height="1"/>
	<rect x="77" y="38" fill="#B3B3B3" width="3" height="1"/>
	<rect x="77" y="43" fill="#B3B3B3" width="3" height="1"/>
	<rect x="86" y="45" fill="#B3B3B3" width="1" height="3"/>
	<rect x="91" y="45" fill="#B3B3B3" width="1" height="3"/>
	<rect x="96" y="45" fill="#B3B3B3" width="1" height="3"/>
	<rect x="101" y="45" fill="#B3B3B3" width="1" height="3"/>
	<rect x="106" y="45" fill="#B3B3B3" width="1" height="3"/>
	<rect x="111" y="45" fill="#B3B3B3" width="1" height="3"/>
	<rect x="116" y="45" fill="#B3B3B3" width="1" height="3"/>
	<rect x="121" y="45" fill="#B3B3B3" width="1" height="3"/>
	<rect x="100" y="19" fill="#3EB9E9" width="2" height="8"/>
	<rect x="84" y="19" fill="#3EB9E9" width="2" height="8"/>
	<rect x="96" y="11" fill="#3EB9E9" width="2" height="8"/>
	<rect x="102" y="27" fill="#3EB9E9" width="2" height="8"/>
	<rect x="102" y="35" fill="#3EB9E9" width="2" height="8"/>
	<rect x="112" y="11" fill="#3EB9E9" width="2" height="8"/>
	<rect x="104" y="11" fill="#3EB9E9" width="2" height="8"/>
	<rect x="86" y="19" fill="#61C6EE" width="2" height="8"/>
	<rect x="112" y="19" fill="#61C6EE" width="2" height="8"/>
	<rect x="84" y="11" fill="#61C6EE" width="2" height="8"/>
	<rect x="82" y="19" fill="#61C6EE" width="2" height="8"/>
	<rect x="96" y="19" fill="#61C6EE" width="2" height="8"/>
	<rect x="86" y="35" fill="#61C6EE" width="2" height="8"/>
	<rect x="88" y="27" fill="#61C6EE" width="2" height="8"/>
	<rect x="90" y="35" fill="#61C6EE" width="2" height="8"/>
	<rect x="98" y="27" fill="#61C6EE" width="2" height="8"/>
	<rect x="96" y="27" fill="#61C6EE" width="2" height="8"/>
	<rect x="94" y="11" fill="#61C6EE" width="2" height="8"/>
	<rect x="94" y="19" fill="#61C6EE" width="2" height="8"/>
	<rect x="102" y="19" fill="#61C6EE" width="2" height="8"/>
	<rect x="98" y="11" fill="#61C6EE" width="2" height="8"/>
	<rect x="98" y="19" fill="#61C6EE" width="2" height="8"/>
	<rect x="104" y="35" fill="#61C6EE" width="2" height="8"/>
	<rect x="104" y="3" fill="#61C6EE" width="2" height="8"/>
	<rect x="96" y="3" fill="#61C6EE" width="2" height="8"/>
	<rect x="104" y="19" fill="#61C6EE" width="2" height="8"/>
	<rect x="102" y="11" fill="#61C6EE" width="2" height="8"/>
	<rect x="106" y="11" fill="#61C6EE" width="2" height="8"/>
	<rect x="112" y="3" fill="#61C6EE" width="2" height="8"/>
	<rect x="114" y="11" fill="#61C6EE" width="2" height="8"/>
	<rect x="96" y="11" fill="#61C6EE" width="2" height="8"/>
	<rect x="102" y="27" fill="#61C6EE" width="2" height="8"/>
	<rect x="100" y="35" fill="#61C6EE" width="2" height="8"/>
	<rect x="112" y="27" fill="#61C6EE" width="2" height="8"/>
	<rect x="100" y="27" fill="#61C6EE" width="2" height="8"/>
	<rect x="96" y="35" fill="#61C6EE" width="2" height="8"/>
	<rect x="104" y="27" fill="#61C6EE" width="2" height="8"/>
	<rect x="108" y="11" fill="#88D4F2" width="2" height="8"/>
	<rect x="100" y="11" fill="#61C6EE" width="2" height="8"/>
	<rect x="102" y="3" fill="#88D4F2" width="2" height="8"/>
	<rect x="98" y="3" fill="#88D4F2" width="2" height="8"/>
	<rect x="92" y="19" fill="#88D4F2" width="2" height="8"/>
	<rect x="100" y="11" fill="#88D4F2" width="2" height="8"/>
	<rect x="94" y="3" fill="#88D4F2" width="2" height="8"/>
	<rect x="88" y="19" fill="#88D4F2" width="2" height="8"/>
	<rect x="86" y="11" fill="#88D4F2" width="2" height="8"/>
	<rect x="92" y="11" fill="#88D4F2" width="2" height="8"/>
	<rect x="84" y="3" fill="#88D4F2" width="2" height="8"/>
	<rect x="82" y="11" fill="#88D4F2" width="2" height="8"/>
	<rect x="82" y="27" fill="#88D4F2" width="2" height="8"/>
	<rect x="84" y="35" fill="#88D4F2" width="2" height="8"/>
	<rect x="92" y="35" fill="#88D4F2" width="2" height="8"/>
	<rect x="90" y="27" fill="#88D4F2" width="2" height="8"/>
	<rect x="94" y="35" fill="#88D4F2" width="2" height="8"/>
	<rect x="94" y="27" fill="#88D4F2" width="2" height="8"/>
	<rect x="98" y="35" fill="#88D4F2" width="2" height="8"/>
	<rect x="106" y="19" fill="#88D4F2" width="2" height="8"/>
	<rect x="106" y="27" fill="#88D4F2" width="2" height="8"/>
	<rect x="106" y="3" fill="#88D4F2" width="2" height="8"/>
	<rect x="106" y="35" fill="#88D4F2" width="2" height="8"/>
	<rect x="88" y="3" fill="#88D4F2" width="2" height="8"/>
	<rect x="92" y="3" fill="#88D4F2" width="2" height="8"/>
	<rect x="90" y="11" fill="#88D4F2" width="2" height="8"/>
	<rect x="110" y="3" fill="#88D4F2" width="2" height="8"/>
	<rect x="110" y="11" fill="#88D4F2" width="2" height="8"/>
	<rect x="110" y="19" fill="#88D4F2" width="2" height="8"/>
	<rect x="110" y="27" fill="#88D4F2" width="2" height="8"/>
	<rect x="112" y="35" fill="#88D4F2" width="2" height="8"/>
	<rect x="114" y="35" fill="#88D4F2" width="2" height="8"/>
	<rect x="114" y="27" fill="#88D4F2" width="2" height="8"/>
	<rect x="114" y="19" fill="#88D4F2" width="2" height="8"/>
	<rect x="116" y="11" fill="#88D4F2" width="2" height="8"/>
	<rect x="116" y="19" fill="#88D4F2" width="2" height="8"/>
	<rect x="118" y="19" fill="#88D4F2" width="2" height="8"/>
	<rect x="116" y="3" fill="#88D4F2" width="2" height="8"/>
	<rect x="114" y="3" fill="#88D4F2" width="2" height="8"/>
	<rect x="118" y="35" fill="#88D4F2" width="2" height="8"/>
	<rect x="88" y="35" fill="#61C6EE" width="2" height="8"/>
	<rect x="84" y="19" fill="#61C6EE" width="2" height="8"/>
</g>
</svg>
